<?xml version="1.0" standalone="no"?>
<!DOCTYPE svg PUBLIC "-//W3C//DTD SVG 20010904//EN"
 "http://www.w3.org/TR/2001/REC-SVG-20010904/DTD/svg10.dtd">
<svg version="1.0" xmlns="http://www.w3.org/2000/svg"
 width="1000.000000pt" height="1000.000000pt" viewBox="0 0 1000.000000 1000.000000"
 preserveAspectRatio="xMidYMid meet">
<metadata>
Created by potrace 1.14, written by Peter Selinger 2001-2017
</metadata>
<g transform="translate(0.000000,1000.000000) scale(0.100000,-0.100000)"
fill="#000000" stroke="none">
<path d="M4106 9151 c-4 -14 -16 -237 -20 -369 -1 -28 -6 -44 -16 -47 -9 -3
-53 3 -100 13 l-84 18 -61 -30 c-33 -17 -61 -30 -62 -31 0 0 -4 -22 -7 -50
-10 -77 -12 -84 -18 -90 -3 -3 -36 -8 -74 -11 -53 -4 -88 -15 -149 -45 -45
-21 -84 -39 -88 -39 -4 0 -20 26 -35 58 -24 47 -29 70 -29 129 -1 94 -20 122
-93 139 l-51 11 30 -31 c30 -31 78 -161 63 -169 -4 -2 -26 -3 -49 -2 -57 1
-56 -18 2 -41 50 -18 59 -30 69 -85 6 -33 2 -39 -44 -86 -65 -66 -110 -79
-167 -49 l-40 21 1 75 c1 51 8 86 20 108 l18 34 -30 -7 -30 -6 0 63 c0 44 6
73 19 97 19 32 19 34 2 46 -16 12 -16 16 0 69 10 30 21 57 25 59 4 3 27 7 52
11 l45 6 24 -45 c28 -52 37 -56 46 -16 4 19 0 39 -14 62 -10 19 -22 61 -26 94
-8 63 -12 95 -14 108 -1 8 -508 1 -591 -8 -157 -17 -224 -26 -229 -31 -3 -3
-5 -566 -2 -626 1 -10 8 -18 16 -18 20 0 20 0 -22 -72 -29 -48 -38 -58 -41
-43 -5 28 -14 35 -45 37 -15 1 -27 7 -28 13 0 5 -2 26 -3 45 -1 19 -12 53 -23
75 -11 22 -30 70 -42 108 -28 93 -36 104 -76 111 -35 7 -41 17 -36 68 1 9 -8
32 -21 51 -16 26 -35 39 -73 51 -69 21 -75 21 -115 -12 -31 -26 -34 -34 -38
-98 -7 -109 -6 -214 3 -279 4 -33 8 -76 9 -95 l1 -35 -182 -1 c-99 -1 -188 -4
-196 -7 -14 -5 -15 -58 -15 -421 0 -449 -4 -421 48 -417 26 2 38 -13 43 -53 6
-43 33 -71 78 -81 18 -4 72 9 164 41 88 30 140 43 146 37 5 -5 12 -26 16 -47
4 -23 19 -50 39 -72 19 -19 34 -44 35 -57 2 -84 11 -113 46 -144 19 -18 50
-35 69 -39 19 -3 35 -11 35 -18 1 -6 2 -30 3 -52 1 -34 8 -48 42 -83 38 -37
46 -41 90 -40 67 1 76 0 70 -9 -3 -5 -8 -24 -11 -43 -3 -18 -8 -35 -10 -37 -2
-2 -29 4 -60 14 -46 15 -63 26 -88 61 -17 24 -38 43 -46 44 -58 3 -103 11
-157 29 -34 12 -92 23 -128 25 -61 4 -66 3 -86 -22 -18 -23 -21 -38 -18 -97
l3 -70 40 -23 c22 -12 44 -24 49 -26 5 -2 9 -22 10 -45 1 -34 9 -49 40 -81 33
-34 48 -41 95 -47 31 -5 59 -9 64 -10 4 -1 11 -2 16 -3 9 -1 35 -65 36 -86 0
-6 -109 -10 -305 -11 -168 -1 -311 -2 -319 -3 -11 -1 -13 -28 -7 -158 3 -87 8
-169 10 -183 2 -14 7 -54 11 -90 18 -190 53 -390 69 -391 6 0 167 0 359 0 191
0 347 -4 347 -8 0 -32 -78 -258 -107 -311 -101 -184 -139 -262 -164 -339 l-27
-85 52 -52 c45 -44 61 -53 111 -64 33 -6 76 -15 95 -19 19 -4 46 -4 60 0 43
12 62 10 67 -10 4 -17 23 -18 364 -18 197 0 359 1 359 2 0 6 -31 92 -40 110
-5 11 -21 51 -35 88 -43 118 -34 326 14 323 10 0 51 17 90 39 66 37 71 42 72
75 3 103 1 180 -4 194 -6 14 -38 16 -262 16 l-255 0 -1 33 c0 17 -2 43 -4 57
-4 30 -15 264 -20 411 -3 98 8 189 24 189 3 0 17 -25 31 -55 24 -51 29 -56 93
-82 50 -20 78 -40 103 -70 33 -40 39 -43 82 -43 l47 1 -30 16 c-60 31 -85 63
-82 105 4 41 1 43 -37 29 -18 -8 -37 -5 -74 11 -43 18 -53 28 -71 71 -21 46
-22 79 -5 150 1 4 2 14 3 22 0 8 28 28 61 45 50 25 67 29 98 23 20 -4 42 -7
47 -8 6 0 29 -37 53 -82 39 -76 45 -83 73 -83 40 0 61 -22 96 -103 17 -38 44
-83 61 -101 28 -30 30 -37 22 -70 -10 -45 -5 -40 -62 -65 l-46 -20 -47 30
c-26 17 -49 28 -51 26 -2 -2 5 -19 15 -38 l18 -34 82 -3 c76 -3 81 -4 82 -25
0 -12 2 -38 4 -57 2 -19 6 -75 9 -124 3 -49 8 -91 10 -94 4 -4 137 -5 237 -3
37 1 33 23 -22 121 -88 157 -114 291 -74 379 16 37 29 48 98 82 59 29 95 40
145 44 143 11 234 23 262 33 13 5 81 78 80 86 0 0 -7 19 -14 41 -13 36 -17 40
-52 41 -22 1 -97 4 -169 8 -71 4 -156 7 -187 7 -80 1 -89 39 -11 55 23 4 42
24 89 92 32 48 61 91 63 97 2 5 12 20 22 33 17 22 17 25 -3 73 -22 52 -39 64
-95 70 -20 2 -39 -3 -52 -16 -17 -14 -38 -19 -99 -20 -102 -3 -118 -9 -138
-55 -20 -44 -27 -48 -94 -56 l-46 -5 2 43 c7 130 17 244 23 249 3 4 30 10 59
14 47 6 52 5 52 -12 0 -11 13 -32 30 -48 26 -25 38 -29 97 -30 67 -2 68 -1
104 38 32 34 36 44 29 69 -10 34 -10 32 -10 59 0 13 -6 20 -17 18 -35 -3 -38
2 -37 50 3 79 -10 123 -48 164 -32 34 -58 92 -58 129 0 13 40 15 285 15 157 0
287 2 289 4 4 3 16 267 19 406 1 39 6 46 54 85 l52 43 -1 63 c-1 71 -12 84
-80 96 -41 7 -40 3 -40 104 0 30 2 55 4 57 2 2 37 -1 78 -6 70 -8 81 -7 165
21 68 23 116 31 195 36 58 3 132 7 165 9 33 2 72 4 87 4 l27 1 -50 98 c-37 74
-55 125 -71 201 l-20 101 21 53 c20 50 25 54 101 91 l80 40 0 72 0 73 -350 0
c-315 -1 -350 -3 -354 -18z m-1065 -322 c1 -16 2 -35 3 -41 4 -27 -16 -93 -50
-167 l-35 -77 -49 -10 c-40 -8 -50 -8 -55 3 -2 8 -9 12 -14 8 -6 -3 -8 -12 -5
-20 3 -8 -8 -34 -25 -57 l-32 -43 -77 -2 -77 -2 -42 42 c-39 37 -43 46 -43 91
0 64 33 110 87 122 21 4 40 8 43 9 3 1 20 5 38 9 24 6 38 18 52 46 24 47 23
46 87 54 40 5 60 13 81 35 46 48 111 48 113 0z m-995 -31 c23 -32 26 -43 16
-58 -10 -16 -5 -22 43 -49 30 -17 55 -37 55 -44 1 -6 3 -29 6 -49 5 -34 3 -38
-20 -44 -14 -3 -26 -9 -26 -13 1 -3 22 -23 48 -43 48 -36 48 -36 47 -95 -1
-45 -7 -67 -28 -99 -25 -37 -32 -41 -73 -42 -25 -1 -62 -6 -83 -11 -21 -4 -45
-4 -53 0 -47 26 -73 139 -43 185 17 26 14 60 -5 49 -5 -3 -19 13 -31 36 -17
33 -19 51 -14 83 4 23 9 79 11 125 4 104 6 109 41 113 57 6 81 -3 109 -44z
m1958 -117 c23 -21 62 -23 128 -6 22 6 38 0 75 -24 26 -17 53 -29 59 -27 7 3
28 8 46 11 28 5 37 2 63 -25 l29 -31 -19 -57 c-18 -52 -23 -57 -52 -60 -22 -2
-37 3 -51 18 l-19 20 -45 -45 c-46 -46 -67 -52 -111 -36 -17 7 -26 20 -31 44
-11 58 -51 58 -62 0 -7 -38 -9 -39 -76 -52 -46 -8 -50 -7 -100 31 l-52 39 -1
66 c-1 56 3 72 26 107 30 44 51 52 127 49 29 -1 52 -9 66 -22z m-354 -186 c0
-5 -95 -96 -170 -161 -75 -66 -81 -74 -87 -111 -5 -29 -13 -38 -42 -50 -69
-29 -139 -87 -179 -148 -59 -92 -60 -93 -32 -72 38 26 65 36 116 41 45 4 49 2
83 -35 33 -36 41 -40 91 -42 52 -3 58 -6 106 -55 29 -29 59 -52 67 -52 8 0 35
-9 60 -19 41 -18 44 -22 51 -67 5 -43 3 -51 -21 -76 -24 -25 -34 -28 -89 -28
-55 0 -63 3 -69 21 -6 17 -13 20 -38 16 -121 -21 -112 -22 -132 22 -10 23 -19
41 -21 41 -2 0 -25 -9 -52 -19 l-50 -20 -40 30 c-29 21 -47 47 -67 94 -16 36
-31 65 -34 65 -4 0 -19 -25 -34 -55 l-27 -55 39 -16 c55 -22 79 -55 90 -120
l8 -57 -33 39 c-18 21 -33 43 -34 47 0 5 -17 6 -37 3 -21 -4 -56 -9 -78 -12
-63 -7 -112 -67 -154 -190 -30 -85 -41 -105 -82 -144 -27 -25 -53 -58 -59 -74
-15 -41 -5 -44 16 -4 9 18 18 34 19 36 2 2 25 9 52 16 45 12 52 12 74 -5 32
-24 36 -24 73 9 28 24 40 28 87 27 44 -1 65 -8 114 -40 33 -21 61 -39 63 -40
1 -1 11 -32 22 -69 19 -66 17 -71 -18 -67 -7 1 -31 -14 -53 -33 -21 -20 -45
-36 -53 -36 -7 0 -27 -3 -44 -6 -27 -6 -32 -3 -50 31 -21 42 -22 41 -46 -32
-10 -29 -20 -52 -24 -51 -4 1 -31 -2 -61 -6 l-53 -8 -49 48 -48 47 -11 -27
c-5 -15 -10 -32 -10 -37 0 -5 -9 -28 -21 -51 -11 -22 -22 -50 -24 -62 -15 -91
-25 -175 -29 -238 -5 -84 6 -89 101 -42 73 36 84 38 163 38 57 -1 96 -6 115
-17 33 -17 85 -64 85 -75 0 -5 -46 -7 -102 -7 -96 2 -107 0 -158 -28 -127 -68
-135 -74 -165 -138 -29 -60 -29 -61 -29 -247 0 -103 4 -243 8 -312 9 -133 10
-146 22 -255 15 -143 7 -426 -16 -505 -5 -17 -7 -30 -4 -30 3 0 0 -8 -5 -19
-11 -20 -29 -18 -169 13 -56 12 -209 14 -327 4 -27 -3 -30 0 -27 22 2 14 34
86 71 160 110 219 135 296 146 458 l5 72 -43 0 c-38 0 -47 5 -91 51 l-48 51
10 50 c9 45 7 52 -13 74 -12 13 -22 29 -22 36 0 7 -3 38 -7 68 -5 43 -2 64 13
95 19 39 19 40 -1 78 -15 31 -18 47 -11 76 8 35 10 36 57 39 42 3 53 -1 78
-25 28 -26 29 -31 23 -80 l-6 -53 40 0 c28 0 43 -5 50 -17 7 -13 10 40 11 180
0 108 -2 197 -5 197 -3 0 -28 -11 -55 -25 -57 -29 -71 -30 -124 -6 -30 13 -43
27 -55 59 l-17 43 -66 3 c-36 2 -70 6 -75 9 -5 3 -21 34 -34 68 -13 34 -43 82
-66 108 -39 42 -42 49 -37 86 3 22 10 45 15 51 15 18 110 9 159 -15 24 -12 69
-24 98 -28 53 -6 54 -6 77 -59 23 -53 24 -53 57 -44 18 6 36 10 39 10 3 0 29
-23 57 -51 48 -47 51 -54 51 -97 -2 -69 -1 -72 21 -72 19 0 20 7 20 118 0 83
6 137 20 187 13 50 16 72 7 77 -6 4 -14 5 -17 3 -3 -2 -40 -6 -81 -10 -73 -6
-75 -6 -104 25 -16 16 -30 38 -31 48 -16 109 -12 102 -54 100 -40 -1 -54 8
-84 54 -17 26 -17 39 -1 146 3 20 -3 27 -35 40 -36 13 -40 19 -41 51 -2 54 1
64 23 88 16 17 31 22 65 21 49 -1 72 -18 93 -69 11 -26 55 -49 96 -49 6 0 22
-9 35 -21 19 -16 24 -30 24 -72 l1 -52 39 0 c22 0 54 -9 71 -19 26 -15 34 -31
50 -90 18 -66 19 -68 22 -34 2 27 -5 53 -28 94 -25 44 -33 72 -36 128 -4 62
-12 116 -29 206 -2 14 -19 66 -36 115 -29 81 -37 94 -81 128 -46 36 -52 38
-110 35 l-62 -3 -1 -45 c-2 -71 -14 -105 -48 -138 -24 -23 -39 -30 -57 -27
-14 3 -46 8 -72 11 l-46 6 10 -42 c10 -38 9 -43 -18 -71 -25 -26 -34 -29 -90
-29 -53 0 -64 -3 -69 -20 -3 -10 -21 -28 -40 -40 l-34 -21 -49 21 -48 21 1 49
c1 28 4 53 8 56 4 4 28 12 53 19 l47 12 2 51 c2 55 17 82 46 82 10 0 21 5 24
10 10 16 35 12 35 -6 0 -10 7 -14 23 -12 13 2 21 9 18 18 -14 58 -12 86 7 111
19 24 26 25 120 26 92 1 165 13 204 34 14 8 15 14 6 40 l-11 31 -41 -41 c-39
-39 -45 -41 -100 -41 -55 0 -61 2 -97 40 -36 37 -43 40 -91 40 -48 0 -56 4
-98 43 -25 24 -61 50 -80 57 -52 20 -57 26 -65 76 -9 64 10 84 80 84 51 0 53
-1 59 -32 l6 -32 33 32 c28 27 41 32 80 32 43 0 49 -3 67 -32 11 -18 22 -37
24 -43 1 -5 12 0 22 13 15 18 30 23 74 24 85 2 103 -10 125 -81 17 -58 20 -61
51 -61 30 0 33 -3 39 -40 6 -34 11 -40 31 -40 23 0 24 3 21 49 -2 43 0 51 19
60 20 9 22 6 29 -35 6 -45 25 -52 25 -9 0 13 15 40 32 60 30 32 37 35 90 35
31 0 68 -4 82 -10 22 -8 26 -7 26 10 0 31 32 40 147 41 82 1 101 3 78 10 -16
5 -67 10 -112 11 -68 1 -85 -2 -108 -20 -14 -11 -34 -19 -44 -17 -10 2 -36 6
-57 9 -21 4 -39 8 -40 9 -2 1 6 36 18 77 11 41 21 80 22 85 12 56 10 55 124
55 87 0 113 4 149 21 38 18 90 25 160 20 17 -1 30 -16 53 -61 27 -53 37 -63
90 -90 l60 -30 -14 -28 c-14 -28 -89 -102 -103 -102 -4 0 -19 12 -34 26 -26
25 -85 39 -95 22 -3 -4 1 -8 8 -9 21 -1 50 -7 54 -12 2 -2 8 -24 12 -49 11
-57 -3 -76 -78 -106 -39 -16 -63 -34 -83 -62 -27 -38 -31 -40 -83 -40 -31 0
-63 4 -73 9 -14 8 -27 0 -65 -38 l-48 -48 -56 17 c-31 10 -58 17 -59 16 -2 -2
24 -61 56 -132 40 -88 72 -178 98 -277 39 -154 45 -159 56 -49 6 58 15 78 97
217 227 385 534 722 785 862 35 19 115 32 115 18z m135 -42 c22 -26 48 -57 57
-69 l17 -21 -97 0 c-80 0 -102 3 -125 20 -27 18 -28 20 -10 36 44 39 99 80
108 81 6 0 29 -21 50 -47z m-1275 -67 c0 -8 -12 -52 -26 -97 -20 -64 -35 -92
-71 -131 -25 -26 -48 -46 -50 -44 -6 6 15 84 35 131 46 109 112 192 112 141z
m1200 -95 c16 -16 39 -47 51 -70 12 -23 23 -40 25 -39 3 4 12 56 13 81 1 14
11 17 54 17 49 0 56 -3 92 -40 29 -30 51 -42 90 -50 41 -8 55 -17 69 -41 l18
-31 -37 -38 c-35 -36 -38 -37 -83 -28 -53 9 -72 5 -72 -16 0 -9 -18 -16 -57
-20 -32 -4 -65 -9 -74 -12 -11 -3 -21 8 -34 37 -18 39 -19 40 -34 21 -14 -18
-75 -35 -132 -37 -15 0 -109 100 -109 117 0 4 7 8 15 8 17 0 20 23 6 49 -7 13
0 29 31 69 39 50 42 52 90 52 41 0 54 -5 78 -29z m-900 -445 c0 -7 -33 -77
-72 -157 -63 -125 -76 -144 -97 -144 -21 0 -29 13 -71 125 -27 69 -47 126 -46
127 2 2 40 9 96 18 8 1 16 11 18 22 3 20 10 21 88 21 59 0 84 -3 84 -12z
m-400 -225 c5 -21 14 -65 18 -99 7 -52 6 -67 -9 -92 -11 -17 -20 -30 -23 -30
-14 0 -143 54 -152 63 -7 7 -15 22 -19 35 -6 21 -3 22 32 21 88 -3 83 -9 82
89 -2 134 -3 130 31 87 16 -21 34 -54 40 -74z m709 -53 l21 -50 -29 -30 c-27
-28 -33 -30 -112 -30 -46 0 -92 1 -101 1 -16 1 -16 5 5 51 15 35 37 63 72 89
45 35 52 37 86 28 32 -8 40 -16 58 -59z m161 50 c0 -11 -11 -23 -26 -28 -33
-13 -31 -14 -42 18 -10 29 -9 29 29 29 31 0 39 -4 39 -19z m98 -102 c38 -37
41 -46 44 -101 3 -50 6 -60 21 -60 10 0 32 -18 48 -40 29 -39 32 -72 13 -138
-4 -13 2 -21 25 -30 31 -11 36 -23 33 -86 -2 -36 -15 -44 -73 -42 -39 0 -55 5
-66 20 -7 11 -39 34 -71 51 -66 36 -114 94 -101 125 14 36 10 44 -25 51 -20 3
-49 21 -70 41 -49 49 -47 104 7 189 l39 60 68 1 c67 1 69 0 108 -41z m336
-694 c5 -39 2 -51 -20 -84 -25 -35 -30 -38 -61 -32 -32 6 -34 5 -23 -13 10
-16 9 -26 -9 -60 -17 -35 -26 -42 -61 -48 -30 -5 -47 -3 -65 9 -13 9 -26 16
-29 16 -2 0 4 -22 14 -49 l19 -48 -42 -40 c-40 -38 -45 -40 -102 -38 -47 1
-70 8 -107 31 l-47 29 -1 60 c0 44 6 70 23 99 19 34 30 42 84 57 75 21 84 26
77 44 -4 9 12 25 43 45 44 28 53 30 106 25 32 -3 65 -9 73 -12 10 -4 19 5 26
25 9 22 20 32 38 34 48 6 57 -1 64 -50z m-591 -348 c33 -8 82 -26 109 -40 l48
-24 0 -125 c0 -69 -3 -125 -7 -125 -41 1 -52 14 -59 67 -7 59 -19 76 -91 121
-34 21 -45 37 -61 84 -12 33 -16 58 -10 58 6 0 37 -7 71 -16z m-600 -1517 c26
-15 47 -31 47 -36 0 -19 -61 -57 -120 -73 -122 -34 -282 -11 -341 49 l-30 30
33 29 34 30 164 -1 c162 0 166 -1 213 -28z"/>
<path d="M2665 8590 c-4 -6 5 -10 20 -10 15 0 24 4 20 10 -3 6 -12 10 -20 10
-8 0 -17 -4 -20 -10z"/>
<path d="M1994 8592 c3 -5 8 -37 12 -73 3 -35 8 -66 9 -67 2 -2 8 13 14 33 8
31 7 44 -10 76 -11 22 -22 39 -25 39 -3 0 -3 -4 0 -8z"/>
<path d="M3958 8582 c-10 -2 -18 -8 -18 -13 0 -5 63 -9 146 -9 111 0 145 3
142 12 -3 9 -39 13 -129 13 -68 0 -132 -1 -141 -3z"/>
<path d="M2184 7328 c10 -26 12 -27 23 -12 15 20 10 30 -15 37 -17 4 -18 2 -8
-25z"/>
<path d="M2244 7254 c3 -9 6 -20 6 -25 0 -17 18 -9 23 10 3 12 -1 22 -10 25
-22 9 -26 7 -19 -10z"/>
<path d="M3023 7186 c5 -16 137 -15 137 1 0 9 -20 12 -70 11 -45 -1 -69 -6
-67 -12z"/>
<path d="M2324 7165 c3 -9 6 -24 6 -32 0 -13 3 -13 15 -3 20 17 19 23 -6 39
-19 11 -21 11 -15 -4z"/>
<path d="M2927 7173 c-15 -14 -5 -19 43 -18 33 0 50 4 50 13 0 13 -81 18 -93
5z"/>
<path d="M2135 6700 c3 -5 18 -10 33 -10 21 0 24 2 12 10 -20 13 -53 13 -45 0z"/>
<path d="M2383 6130 c-1 -11 2 -22 6 -24 4 -3 7 4 8 14 1 11 -2 22 -6 24 -4 3
-7 -4 -8 -14z"/>
<path d="M2219 6096 c-1 -14 -2 -38 -3 -53 0 -14 4 -28 10 -30 14 -5 18 93 4
102 -6 3 -11 -5 -11 -19z"/>
<path d="M2380 6071 c0 -12 -11 -21 -32 -28 l-33 -9 40 -13 c75 -25 83 -40 81
-146 -1 -63 2 -91 9 -84 6 6 10 47 10 92 -1 73 -5 89 -34 145 -34 66 -41 73
-41 43z"/>
<path d="M2244 5963 c3 -21 5 -48 6 -61 0 -30 16 -20 23 15 5 25 -16 83 -29
83 -3 0 -3 -17 0 -37z"/>
<path d="M4909 9143 c-1 -16 -2 -62 -2 -103 l-2 -74 -89 -21 c-87 -20 -90 -21
-118 -65 -26 -41 -28 -51 -23 -105 5 -46 18 -81 61 -159 84 -153 134 -285 135
-359 1 -34 -5 -74 -12 -90 -17 -38 -102 -84 -169 -91 -55 -7 -178 -23 -235
-32 -84 -13 -123 -34 -154 -84 -16 -26 -31 -54 -32 -62 -6 -29 14 -115 35
-153 110 -193 162 -322 165 -417 1 -37 -2 -76 -8 -86 -16 -31 -109 -83 -155
-88 -271 -29 -350 -46 -392 -85 -29 -28 -30 -33 -32 -120 -1 -87 0 -94 34
-152 85 -151 151 -310 149 -357 -6 -88 -18 -121 -56 -152 -22 -18 -47 -33 -57
-35 -24 -3 -98 -12 -152 -18 -41 -4 -64 -7 -170 -19 -84 -10 -144 -57 -154
-121 -4 -22 -9 -53 -12 -70 -4 -23 8 -56 53 -145 57 -113 66 -133 97 -215 24
-61 46 -165 46 -215 0 -41 -5 -50 -47 -92 -29 -28 -60 -49 -78 -52 -29 -4 -80
-11 -175 -22 -182 -21 -229 -39 -270 -106 -32 -52 -32 -50 -14 -155 2 -12 24
-56 49 -98 105 -177 144 -284 139 -385 -1 -25 -2 -57 -3 -71 -1 -20 -15 -37
-53 -66 -29 -22 -60 -40 -68 -40 -14 0 -91 -8 -175 -19 -22 -2 -62 -9 -90 -14
-27 -5 -65 -12 -84 -15 -43 -7 -60 -17 -90 -49 -22 -24 -25 -34 -24 -116 1
-78 4 -95 28 -137 55 -96 82 -153 130 -273 43 -109 35 -284 -14 -306 -9 -4
-97 -9 -196 -11 -243 -4 -279 -11 -331 -66 -40 -42 -41 -45 -39 -103 2 -47 11
-77 45 -144 85 -169 233 -420 348 -593 187 -277 454 -607 493 -607 12 0 19 -7
19 -19 0 -10 20 -34 43 -52 24 -19 79 -67 123 -108 247 -229 587 -463 899
-617 300 -149 628 -270 748 -278 112 -7 242 28 512 136 368 148 718 351 1010
587 162 131 264 229 418 401 66 74 125 140 131 145 6 6 41 46 77 90 209 255
390 538 556 866 57 114 66 140 65 185 0 102 -5 109 -87 143 -72 30 -76 31
-216 27 -127 -2 -183 2 -256 19 -34 8 -47 63 -40 169 7 99 15 130 72 251 107
229 104 221 107 306 2 75 0 82 -23 100 -36 28 -99 57 -139 64 -19 3 -51 10
-70 15 -19 5 -55 11 -80 14 -25 4 -74 11 -110 16 -36 5 -70 10 -77 10 -7 0
-28 14 -48 31 l-35 31 0 88 c0 95 0 94 82 270 66 141 90 215 95 306 l5 81 -33
31 c-19 18 -37 32 -42 32 -4 0 -53 7 -110 16 -56 9 -115 17 -132 19 -147 17
-169 24 -218 74 -47 46 -48 49 -48 107 1 99 9 124 111 339 44 93 66 153 76
209 13 74 12 80 -6 106 -11 15 -42 42 -69 60 -43 27 -61 32 -128 35 -124 7
-183 15 -255 36 -60 18 -71 25 -99 65 -31 45 -31 48 -25 128 9 108 4 93 79
246 68 140 96 232 93 309 -2 43 -4 46 -63 82 -48 30 -75 39 -130 44 -37 4 -76
9 -85 10 -9 2 -48 6 -85 10 -96 9 -147 29 -189 78 l-36 42 5 87 c4 85 6 91 76
228 72 141 107 231 117 302 5 32 0 45 -30 87 -34 46 -40 50 -109 65 -78 16
-272 51 -349 61 -40 5 -52 12 -78 48 -31 41 -32 44 -28 132 4 85 7 96 52 185
27 52 58 110 68 129 22 39 78 201 78 225 0 9 -14 38 -30 65 -29 46 -33 49 -93
61 -123 26 -116 20 -114 95 1 61 -1 67 -32 100 -30 32 -37 35 -92 35 -57 0
-59 -1 -60 -27z m-364 -2172 c55 -25 83 -59 91 -109 l7 -43 -79 7 c-106 8
-167 -13 -199 -70 -21 -37 -21 -44 -10 -93 10 -41 22 -63 54 -93 40 -38 45
-40 104 -40 67 0 129 14 149 33 36 34 102 79 178 122 l85 48 100 1 c109 1 131
-7 195 -65 104 -94 213 -160 256 -155 111 14 121 18 159 57 34 36 38 45 40 99
2 57 1 60 -43 104 -33 34 -53 46 -76 47 -17 0 -40 2 -51 4 -11 2 -33 6 -50 9
-16 2 -31 5 -33 5 -2 1 7 12 20 25 25 27 39 29 181 27 l87 -1 55 -55 c30 -31
55 -62 55 -69 0 -8 7 -19 15 -26 11 -9 15 -33 15 -92 0 -94 -23 -147 -97 -227
-36 -39 -66 -59 -118 -80 -62 -26 -82 -29 -180 -29 -60 0 -144 6 -185 13 -41
8 -111 17 -155 20 -120 11 -443 8 -504 -4 -29 -6 -93 -11 -142 -11 -83 0 -92
2 -161 38 -60 32 -80 49 -116 100 l-43 61 0 110 c0 94 4 117 25 163 38 82 81
125 161 158 83 34 152 38 210 11z m445 -1294 c52 -27 150 -81 218 -119 l122
-70 0 -53 c0 -45 -4 -55 -30 -78 l-30 -27 -37 32 c-87 74 -144 127 -255 236
-65 64 -118 119 -118 122 0 17 42 3 130 -43z m568 -226 c26 -31 53 -63 61 -71
25 -26 89 -173 98 -225 8 -48 9 -85 3 -220 -4 -99 -8 -111 -38 -113 -15 -1
-36 -4 -47 -6 -11 -2 -45 -8 -75 -12 -30 -4 -58 -9 -62 -10 -5 -1 -17 -2 -28
-3 -11 0 -20 -7 -20 -15 0 -8 -66 -58 -147 -112 -165 -108 -267 -206 -278
-265 -11 -59 -16 -127 -8 -132 7 -4 107 -14 243 -22 25 -2 51 -3 59 -4 7 -1
36 -23 63 -51 37 -37 55 -49 71 -45 12 2 40 7 61 10 22 3 40 7 41 8 0 1 18 27
38 58 24 35 59 117 97 225 32 93 64 184 70 202 19 51 109 93 202 93 65 0 73 3
103 32 71 69 77 241 15 422 -11 32 -19 60 -17 61 1 2 23 -10 47 -25 42 -26 47
-34 74 -116 27 -85 29 -88 45 -68 35 43 132 9 165 -59 9 -17 16 -33 16 -35 0
-5 -85 3 -129 12 -13 2 -24 -2 -28 -11 -7 -20 0 -26 36 -29 49 -4 85 -37 86
-79 2 -41 4 -41 -61 -21 -62 19 -81 19 -81 0 0 -8 3 -15 6 -16 30 -4 46 -11
79 -37 31 -25 38 -37 38 -66 0 -40 -9 -43 -78 -27 -21 5 -38 6 -38 2 0 -4 15
-25 33 -47 39 -46 45 -60 53 -124 l6 -49 -36 -6 c-30 -6 -42 -2 -83 28 -26 19
-59 40 -72 47 -23 12 -23 11 -9 -9 8 -12 29 -37 46 -56 30 -32 51 -92 52 -143
0 -37 -31 -20 -109 59 -74 75 -95 87 -62 37 61 -93 92 -197 73 -247 l-8 -23
-30 34 c-16 18 -37 39 -47 46 -14 12 -16 11 -12 -6 2 -10 6 -60 10 -109 l7
-91 -36 0 c-27 0 -45 8 -65 26 -15 15 -40 38 -54 51 l-26 24 1 -76 c1 -46 -4
-82 -11 -91 -20 -24 -80 1 -138 58 l-53 50 0 -29 c0 -15 -5 -57 -11 -92 -10
-57 -13 -63 -36 -63 -13 0 -48 18 -76 40 l-52 39 -3 -49 c-3 -47 -5 -50 -31
-50 -25 0 -31 7 -56 68 -16 37 -30 69 -32 71 -2 3 -17 -8 -33 -24 -16 -16 -31
-27 -33 -24 -1 2 -10 20 -20 39 l-17 35 2 -80 c3 -94 24 -160 95 -296 45 -85
52 -94 103 -120 58 -31 68 -27 52 20 -8 22 -7 34 3 48 13 17 14 17 33 -7 11
-14 30 -36 42 -50 92 -103 236 -343 302 -504 28 -67 65 -140 84 -163 19 -23
34 -44 34 -48 0 -5 -53 1 -91 11 -9 2 -49 58 -89 124 -41 66 -76 118 -78 116
-4 -5 69 -189 99 -250 12 -22 37 -67 58 -98 30 -49 43 -60 84 -74 49 -16 52
-20 38 -43 -6 -10 -23 -12 -59 -8 -100 11 -141 49 -172 161 -12 43 -30 98 -40
121 -18 43 -98 175 -106 175 -2 0 6 -24 17 -52 12 -29 24 -62 27 -73 3 -11 8
-24 12 -30 4 -5 22 -55 39 -110 18 -55 55 -144 82 -199 28 -54 48 -100 46
-102 -2 -2 -17 -6 -33 -9 -25 -5 -38 2 -87 47 -56 52 -58 55 -91 168 -55 186
-98 293 -120 296 -19 3 -29 12 -108 102 l-38 42 0 -51 c0 -42 7 -65 40 -121
l40 -69 -43 7 c-23 4 -48 7 -55 7 -14 0 -40 45 -52 87 -6 21 -10 14 -31 -48
-21 -65 -83 -161 -96 -149 -2 3 -6 17 -9 33 -3 16 -7 36 -9 44 -3 8 -7 33 -11
54 -9 61 -18 78 -87 163 -74 91 -133 152 -220 225 -34 29 -64 55 -67 58 -3 3
-52 44 -110 90 -120 96 -233 207 -277 271 -75 110 -117 287 -89 379 12 39 11
39 82 97 l51 42 13 -69 c14 -74 29 -87 24 -20 -6 87 17 128 143 258 119 121
181 171 351 277 122 77 190 158 207 247 6 32 1 45 -52 125 -53 78 -59 91 -51
119 8 31 8 31 73 29 36 -2 65 -1 65 0 0 2 -24 9 -54 15 -145 30 -504 203 -506
243 0 14 216 -7 305 -29 70 -18 106 -36 160 -78 86 -68 105 -90 105 -123 0
-46 17 -41 30 10 7 23 22 53 35 67 12 14 33 57 45 95 35 108 30 103 95 92 51
-10 61 -16 103 -66z m-1638 -243 c0 -11 -9 -40 -20 -66 -28 -66 -37 -123 -35
-232 1 -86 4 -99 30 -142 27 -43 33 -47 80 -54 27 -4 52 -8 55 -9 3 -1 30 -5
60 -9 79 -12 103 -27 149 -94 27 -38 33 -57 76 -227 26 -106 30 -134 20 -150
-6 -11 -19 -63 -29 -116 -10 -53 -21 -100 -25 -105 -3 -5 -31 -30 -61 -55 -49
-41 -58 -45 -82 -37 -30 10 -31 16 -28 102 2 53 2 53 -61 4 -38 -29 -56 -33
-98 -21 -23 6 -23 8 -17 77 3 39 8 81 10 94 3 12 1 22 -5 22 -5 0 -9 -4 -9 -9
0 -11 -37 -36 -67 -45 -20 -6 -21 -4 -18 41 2 28 18 80 38 123 32 70 49 120
42 120 -2 0 -25 -30 -52 -67 -45 -62 -53 -68 -86 -69 -67 -2 -60 59 21 166 30
41 49 70 41 64 -8 -6 -42 -32 -76 -58 -55 -41 -67 -46 -96 -41 l-34 7 12 62
c8 47 21 74 48 108 42 51 44 58 20 54 -102 -19 -102 -19 -109 10 -6 24 0 33
52 80 l59 53 -60 1 c-59 0 -61 1 -61 26 0 21 11 33 51 58 l50 31 -71 5 c-62 4
-71 7 -68 23 1 10 20 35 41 56 33 32 44 36 86 36 37 0 51 -5 59 -20 10 -16 15
-6 34 64 19 70 29 90 62 121 44 40 72 47 72 18z m2691 -157 c-22 -26 -46 -48
-53 -48 -7 0 -38 -4 -69 -8 l-56 -7 -16 39 -15 38 57 12 c31 7 81 15 111 19
30 4 57 8 59 10 2 2 8 1 13 -2 5 -3 -9 -27 -31 -53z m-3044 -14 c19 -19 -14
-87 -42 -87 -50 0 -113 28 -153 69 l-42 43 112 -7 c65 -4 118 -12 125 -18z
m2987 -183 c11 -8 21 -21 22 -30 2 -13 -5 -15 -49 -9 -62 8 -72 17 -82 69 l-6
39 48 -28 c26 -16 57 -34 67 -41z m-3023 0 c15 -42 -11 -64 -78 -64 -32 0 -52
4 -48 10 5 8 105 79 113 80 1 0 7 -12 13 -26z m3011 -170 c21 -16 38 -31 38
-34 0 -11 -138 -4 -151 7 -8 7 -13 27 -12 50 1 21 2 46 2 57 1 16 7 13 44 -16
23 -19 59 -47 79 -64z m-2962 52 c0 -33 -24 -112 -38 -122 -18 -15 -162 -16
-162 -2 0 15 156 127 178 127 12 1 22 -1 22 -3z m2877 -213 c12 -12 39 -34 58
-49 l36 -27 -28 -12 c-42 -17 -125 21 -134 61 -4 16 -11 49 -17 73 l-10 43 36
-33 c19 -19 46 -44 59 -56z m-2840 44 c-2 -7 -10 -37 -16 -67 -6 -30 -15 -60
-19 -66 -8 -13 -104 -44 -135 -44 -16 0 -14 7 18 53 66 91 109 135 134 136 15
1 21 -4 18 -12z m2814 -221 c48 -45 148 -105 298 -182 l43 -22 -93 0 c-72 0
-111 6 -169 25 -87 29 -209 104 -211 130 -2 18 -1 82 0 95 1 9 42 15 61 9 8
-2 40 -27 71 -55z m-2767 21 c14 -10 19 -27 19 -67 0 -44 -4 -56 -24 -71 -13
-10 -28 -19 -33 -19 -5 0 -17 -6 -25 -13 -16 -14 -157 -74 -196 -84 -11 -3
-60 -8 -110 -10 l-90 -5 25 20 c14 11 72 43 130 72 93 46 154 89 239 168 28
25 40 27 65 9z m2699 -182 c45 -39 111 -86 147 -104 107 -55 260 -143 265
-152 3 -4 -29 -7 -72 -5 -106 4 -243 57 -379 148 -55 37 -107 74 -114 83 -17
20 -16 95 0 105 25 16 74 -9 153 -75z m-2581 7 c8 -56 -4 -72 -107 -138 -199
-128 -340 -182 -454 -176 l-55 3 30 20 c16 11 92 52 168 90 98 49 169 94 239
150 85 67 105 79 137 79 34 0 38 -3 42 -28z m2486 -190 c53 -54 150 -142 215
-196 64 -54 117 -100 117 -102 0 -2 -19 -3 -42 -3 -28 1 -79 19 -147 51 -112
52 -175 95 -259 177 l-54 52 7 52 c9 65 10 67 41 67 19 0 51 -26 122 -98z
m-2394 37 c9 -8 13 -97 5 -102 -7 -5 -143 -121 -156 -133 -6 -6 -48 -33 -93
-59 -85 -50 -136 -69 -214 -79 l-48 -7 34 29 c18 15 80 66 138 111 103 82 159
135 227 218 31 37 38 41 66 36 18 -3 36 -9 41 -14z m2149 -64 c34 -9 46 -19
61 -51 10 -21 49 -93 86 -159 92 -164 141 -255 135 -255 -7 0 -138 82 -180
114 -44 32 -137 126 -193 193 -25 31 -33 49 -29 65 3 13 11 44 17 70 13 53 6
51 103 23z m-1971 -57 c31 -59 33 -99 6 -129 -13 -15 -33 -40 -46 -55 -49 -63
-188 -197 -227 -220 -51 -30 -138 -57 -128 -41 4 7 32 51 62 98 31 47 85 144
120 216 l65 132 50 19 c66 24 76 22 98 -20z m1781 -51 c15 -10 26 -24 25 -30
-4 -21 13 -109 34 -176 12 -39 43 -99 79 -151 51 -75 56 -86 42 -97 -40 -30
-257 212 -335 374 l-25 50 30 51 31 51 45 -27 c26 -14 58 -34 74 -45z m-1517
-83 c-18 -71 -144 -255 -223 -324 -42 -37 -125 -92 -130 -86 -2 2 9 25 25 52
15 27 45 83 65 124 32 66 42 100 63 213 2 16 6 34 7 40 1 7 28 31 61 54 l59
42 39 -47 c26 -32 37 -54 34 -68z m1093 87 c22 -31 31 -128 17 -189 -10 -43
-17 -35 -59 63 -29 69 -32 85 -24 118 11 46 37 49 66 8z m201 -35 c0 -2 5 -28
11 -57 5 -30 12 -70 15 -89 2 -19 6 -46 9 -58 6 -26 -2 -62 -14 -62 -9 0 -77
92 -101 138 -11 21 -24 59 -28 84 -8 40 -6 49 11 67 20 20 20 20 59 0 21 -11
38 -21 38 -23z m-1213 -134 c7 -4 15 -25 18 -47 6 -38 4 -43 -40 -85 -32 -31
-45 -39 -41 -25 6 22 12 54 22 122 6 42 16 51 41 35z m636 -575 c70 -75 101
-127 111 -189 l7 -38 -29 17 c-16 9 -41 38 -56 65 -15 26 -31 48 -36 48 -5 0
-21 -11 -35 -24 -15 -14 -45 -34 -66 -46 l-40 -20 5 37 c16 120 17 169 2 212
-9 24 -16 48 -16 52 0 20 89 -47 153 -114z m52 -244 l23 -51 -56 -54 c-39 -37
-71 -58 -102 -67 -43 -12 -48 -11 -102 18 -55 29 -57 30 -60 10 -3 -18 -23
-26 -134 -54 -205 -53 -514 -161 -514 -180 0 -4 14 -48 31 -99 l32 -93 123
-61 c137 -69 139 -71 87 -141 -27 -37 -29 -37 -59 -25 -18 7 -47 32 -65 56
-42 54 -45 56 -95 64 -26 4 -54 17 -75 36 -30 28 -32 33 -21 60 10 27 9 28
-11 22 -12 -4 -94 -9 -182 -10 -88 -1 -174 -6 -191 -12 -46 -14 -87 7 -119 62
-15 25 -28 64 -30 86 -4 47 -6 47 113 21 45 -10 82 -16 82 -15 0 2 -24 16 -52
31 -48 24 -63 27 -173 27 -66 1 -122 5 -123 9 -2 4 -1 34 3 67 8 66 11 68 78
49 62 -17 55 -2 -8 17 -42 13 -60 25 -66 42 -18 46 -12 60 31 67 36 6 51 1
137 -45 54 -29 135 -75 180 -102 l82 -49 112 6 c191 9 430 84 623 195 164 93
280 147 368 170 88 22 98 18 133 -57z m290 10 c44 -21 91 -92 106 -161 l11
-53 -40 -43 c-75 -81 -178 -320 -206 -476 -3 -14 -10 -49 -15 -79 -24 -119
-30 -244 -19 -356 8 -75 15 -93 48 -128 26 -27 29 -27 166 -31 167 -5 208 -17
246 -72 38 -54 36 -64 -9 -53 -55 13 -67 11 -90 -11 -21 -19 -22 -19 -79 0
-42 15 -84 20 -158 20 -84 0 -106 4 -131 20 -18 12 -38 17 -50 14 -36 -11
-159 -74 -224 -115 -35 -22 -86 -49 -113 -60 l-49 -19 -55 47 c-30 26 -54 50
-54 55 0 4 17 19 37 33 36 24 37 25 12 25 -15 0 -69 -22 -122 -49 l-95 -49 -7
37 c-17 86 -17 93 2 107 16 12 15 13 -19 14 -29 0 -41 6 -58 30 -17 23 -19 34
-10 50 10 19 20 20 246 20 l235 0 64 48 c58 43 68 56 109 142 50 105 78 188
100 295 15 73 61 331 71 400 3 23 7 52 10 65 3 13 7 42 10 65 3 22 8 51 10 65
2 14 7 45 10 69 7 52 54 151 71 151 2 0 19 -8 39 -17z m-1997 -175 c3 -15 -4
-18 -44 -18 -45 0 -46 1 -31 18 21 23 71 23 75 0z m0 -127 c5 -30 -4 -38 -50
-46 -43 -8 -46 -3 -19 41 24 39 64 42 69 5z m173 -207 c5 -15 8 -28 7 -29 -2
-1 -18 -10 -35 -19 -37 -18 -38 -15 -27 43 8 40 40 43 55 5z m945 -273 c7 -4
7 -19 -1 -50 l-11 -45 -27 30 c-15 16 -25 35 -22 42 3 8 5 20 5 28 0 15 26 12
56 -5z m-107 -585 c10 -12 7 -18 -18 -31 -35 -17 -36 -16 -19 20 13 29 21 31
37 11z m55 -126 c0 -16 -8 -29 -24 -37 -13 -7 -25 -11 -27 -9 -1 1 2 19 8 40
12 43 43 48 43 6z m250 -66 c10 -27 7 -46 -11 -60 -10 -7 -21 -14 -25 -14 -6
0 -5 5 7 63 6 30 20 35 29 11z"/>
<path d="M5440 5379 c-27 -44 -31 -59 -28 -107 l3 -57 85 -32 c47 -18 91 -32
98 -33 8 0 12 19 12 63 l-1 62 -50 39 c-43 33 -50 43 -47 67 3 21 -1 30 -18
38 -21 9 -26 5 -54 -40z m109 -130 l20 -41 -22 6 c-12 3 -28 6 -34 6 -7 0 -13
4 -13 9 0 14 19 61 25 61 2 0 13 -18 24 -41z"/>
<path d="M4496 4095 c4 -8 8 -15 10 -15 2 0 4 7 4 15 0 8 -4 15 -10 15 -5 0
-7 -7 -4 -15z"/>
<path d="M4940 2780 l-35 -29 50 11 c59 12 57 11 49 32 -9 23 -24 20 -64 -14z"/>
<path d="M5941 9156 c-5 -6 -12 -78 -16 -161 -6 -133 -10 -204 -14 -242 -1 -7
-11 -10 -23 -8 -18 4 -113 -38 -128 -56 -3 -3 -36 -9 -74 -13 -38 -4 -76 -11
-85 -16 -9 -5 -25 -33 -34 -64 l-18 -55 31 -50 c27 -44 38 -52 101 -76 39 -15
69 -29 67 -31 -2 -2 -100 -6 -218 -10 -320 -9 -321 -9 -329 -23 -5 -7 -9 -45
-10 -84 -2 -68 0 -73 29 -100 28 -27 37 -29 127 -33 176 -8 235 -18 314 -58
56 -28 68 -39 97 -91 29 -54 32 -66 26 -115 -9 -83 -9 -84 -73 -221 -49 -105
-57 -129 -43 -130 108 -5 195 -2 201 6 4 6 7 117 6 248 0 130 0 237 1 237 1 0
60 -16 130 -36 l128 -37 66 21 c43 13 94 20 153 20 83 1 90 3 127 32 25 20 41
42 45 63 14 67 13 67 53 61 37 -6 115 -45 127 -64 10 -16 -45 -58 -103 -80
-29 -11 -70 -29 -90 -39 -39 -21 -102 -74 -102 -88 0 -4 -5 -26 -10 -47 l-9
-40 37 43 c26 29 58 51 105 71 37 15 65 24 61 19 -3 -5 -2 -13 1 -19 3 -5 33
12 65 39 l59 49 87 -19 c48 -11 88 -18 90 -16 2 2 -8 27 -22 55 -29 59 -152
172 -187 172 -63 1 -91 36 -47 60 18 10 8 21 -107 118 -106 89 -123 108 -104
110 14 2 58 -17 114 -51 51 -30 116 -67 145 -82 37 -20 52 -34 52 -49 1 -12
33 -55 77 -101 102 -107 214 -248 310 -392 135 -202 175 -283 199 -411 8 -40
39 -115 49 -119 6 -2 18 40 28 92 18 99 84 308 121 385 12 25 36 68 53 95 17
28 35 65 38 84 l7 34 -53 -44 c-30 -24 -57 -47 -60 -52 -3 -4 -29 -3 -57 4
-51 10 -52 11 -69 65 -9 30 -20 54 -24 54 -4 0 -14 -11 -23 -25 -14 -22 -24
-25 -76 -25 -57 0 -59 1 -87 40 -19 27 -44 46 -80 61 -44 17 -53 26 -58 52 -4
18 -9 39 -11 49 -4 13 6 18 43 26 42 9 49 8 60 -8 13 -19 14 -19 46 0 25 16
50 20 120 20 80 0 87 -2 87 -20 0 -19 7 -20 90 -20 l90 0 15 -35 c8 -19 22
-51 31 -71 l15 -36 28 26 c32 31 41 32 41 8 0 -32 13 -33 31 -5 14 21 29 29
61 33 41 5 43 6 51 50 14 70 38 90 111 90 60 -1 61 -1 91 -43 l30 -42 9 63 9
62 52 0 c38 0 60 -6 79 -21 15 -12 28 -20 30 -18 1 2 7 16 14 31 10 24 15 27
49 23 96 -12 95 -11 88 -68 -8 -62 -12 -68 -33 -66 -47 4 -63 -4 -99 -50 -34
-44 -43 -50 -88 -56 -96 -14 -109 -20 -120 -56 -5 -16 -16 -19 -68 -19 -55 0
-69 4 -114 35 -65 44 -75 44 -61 3 9 -26 8 -33 -5 -43 -10 -7 -17 -14 -17 -17
0 -5 63 -26 104 -34 42 -9 153 -6 172 4 16 9 26 6 49 -12 26 -21 28 -29 26
-74 -2 -56 6 -66 41 -53 16 6 33 3 61 -10 39 -20 43 -32 38 -106 -2 -30 0 -33
26 -34 78 -2 98 -20 88 -78 -6 -34 -11 -42 -33 -47 -15 -3 -33 -8 -41 -10 -8
-3 -28 9 -45 25 -25 25 -45 32 -100 40 -88 13 -109 31 -102 88 3 24 8 48 12
55 5 8 2 9 -12 3 -30 -12 -124 -14 -149 -3 -18 8 -24 22 -30 72 -5 33 -9 63
-10 66 0 3 -5 20 -9 38 l-8 32 -76 0 -77 0 -51 -48 c-42 -38 -58 -63 -87 -137
-20 -49 -38 -108 -41 -130 -26 -194 -40 -272 -57 -299 -25 -42 -28 -190 -3
-200 28 -11 29 -7 27 63 -1 61 1 72 25 99 26 30 60 40 130 42 22 0 23 2 17 53
-4 28 -9 55 -11 59 -6 10 23 24 84 38 56 13 56 13 43 39 -8 13 -23 18 -67 19
-48 0 -60 -3 -79 -24 -13 -14 -26 -41 -29 -62 -12 -63 -16 -70 -46 -74 -24 -4
-29 -1 -26 11 3 9 10 45 16 81 19 111 59 237 98 312 33 64 42 74 85 91 26 11
50 17 54 14 3 -4 6 -35 5 -69 0 -58 3 -66 39 -112 l39 -49 -22 -24 c-13 -14
-18 -23 -13 -22 6 2 29 -1 53 -5 36 -7 45 -14 63 -48 l21 -41 -40 -41 c-39
-41 -39 -42 -39 -118 0 -43 -5 -83 -11 -90 -6 -8 -33 -22 -61 -32 -48 -17 -50
-19 -57 -63 -5 -32 -17 -57 -38 -80 -30 -33 -33 -34 -114 -35 l-83 -1 7 -104
c6 -90 9 -156 13 -240 1 -14 11 -24 31 -32 l30 -10 0 52 c0 64 33 126 73 140
21 7 37 4 67 -11 47 -23 53 -18 70 50 11 43 16 49 49 58 20 5 41 10 47 10 6 0
31 11 55 23 33 18 59 24 103 23 l59 -1 -1 -43 c-2 -101 2 -93 -42 -86 -35 6
-40 4 -41 -12 -1 -24 -8 -72 -14 -100 -3 -13 -18 -27 -37 -34 -18 -7 -48 -20
-67 -28 -31 -14 -35 -14 -47 3 -13 17 -14 16 -25 -11 -6 -16 -15 -39 -20 -51
-12 -31 -48 -37 -145 -27 -81 9 -84 9 -85 -11 0 -11 -2 -45 -4 -75 -2 -30 -6
-104 -9 -165 -4 -60 -11 -111 -16 -113 -6 -2 -10 -36 -10 -76 0 -57 -4 -77
-19 -92 -37 -40 -47 -134 -20 -187 24 -46 35 -39 44 28 3 22 7 54 9 70 2 17 5
42 5 56 1 24 6 27 52 32 73 9 82 21 22 30 -49 8 -51 12 -41 69 5 29 11 54 13
56 2 3 26 8 75 17 10 1 14 11 12 29 -2 15 5 48 14 72 17 44 17 44 65 44 53 0
58 -7 50 -82 -2 -29 -8 -38 -22 -38 -17 0 -17 -2 4 -37 18 -32 22 -53 22 -128
0 -82 -2 -90 -21 -95 -19 -4 -22 -12 -22 -75 0 -38 -1 -78 -1 -87 -1 -11 -15
-21 -41 -28 -22 -5 -58 -15 -81 -21 l-40 -10 6 -97 c7 -106 22 -182 58 -287
25 -71 96 -218 129 -267 27 -40 23 -49 -19 -42 -21 3 -88 7 -150 10 -105 4
-117 2 -194 -26 -46 -16 -84 -30 -86 -30 -1 0 -12 18 -24 41 -20 40 -20 50
-15 363 4 176 8 337 10 356 14 112 21 253 20 380 -1 122 -5 158 -25 224 -27
87 -16 77 -182 164 -69 36 -79 38 -155 37 -45 -1 -82 0 -82 1 0 1 20 14 45 29
39 23 57 26 128 27 71 0 91 -5 149 -31 58 -27 71 -29 98 -20 l32 11 -7 97
c-10 148 -11 155 -45 241 -17 45 -29 93 -27 108 5 33 -8 62 -28 62 -9 0 -25
-19 -36 -43 -22 -46 -28 -48 -129 -51 l-45 -1 -24 68 c-13 37 -27 67 -32 67
-9 0 -24 -48 -28 -93 -1 -11 -84 3 -97 17 -7 6 -19 35 -29 64 -19 59 -31 65
-46 22 -12 -32 -16 -35 -37 -21 -9 5 -11 19 -7 42 3 19 7 41 8 49 4 27 16 37
39 35 14 -1 37 11 56 29 28 27 39 30 99 31 64 1 66 1 77 -27 12 -33 16 -33 58
-12 23 12 44 14 83 9 l53 -6 18 -65 c19 -70 24 -77 49 -68 13 6 15 16 10 63
-10 84 -12 87 -64 109 -47 19 -48 20 -65 88 -9 38 -27 89 -38 114 -26 55 -105
160 -121 161 -7 0 -20 2 -29 4 -72 14 -101 14 -124 -1 -19 -13 -24 -14 -24 -3
0 24 14 37 63 58 57 25 60 44 16 114 -23 37 -35 48 -52 45 -17 -2 -25 -16 -40
-70 l-20 -67 -59 -20 -60 -20 -33 24 c-17 14 -37 25 -43 25 -6 0 -14 -20 -18
-45 l-6 -45 -51 0 c-38 0 -56 5 -73 21 l-22 21 -7 -32 -7 -31 -66 3 -67 3 -14
44 -14 45 38 31 c40 34 39 39 -10 49 -39 8 -68 -20 -82 -80 -12 -48 -7 -59 50
-115 39 -39 43 -41 86 -34 25 3 95 8 155 11 60 2 115 9 121 14 6 5 30 12 53
16 37 6 42 4 36 -10 -4 -11 -18 -16 -46 -16 -61 0 -100 -29 -122 -91 l-19 -52
-96 7 c-53 3 -109 9 -126 12 -108 19 -288 9 -365 -22 l-38 -15 0 -123 0 -122
111 -39 c108 -38 113 -42 133 -82 36 -70 27 -137 -33 -268 -65 -140 -113 -264
-104 -269 3 -2 104 -4 224 -5 120 0 223 -3 227 -6 5 -3 7 -15 5 -26 -3 -13 10
-35 37 -65 l41 -44 74 0 c41 0 82 4 92 10 17 8 18 1 18 -119 l0 -129 -31 -9
c-30 -9 -31 -9 -32 -78 -1 -59 3 -74 22 -95 20 -22 23 -39 29 -150 7 -143 9
-157 18 -166 3 -4 125 -7 269 -8 250 -1 263 -2 261 -20 0 -10 -4 -57 -9 -105
-21 -247 0 -424 67 -588 43 -102 93 -136 247 -168 99 -21 645 -30 660 -12 9
10 18 48 47 197 3 14 8 39 10 55 15 86 25 143 29 170 9 58 18 120 21 136 2 9
6 38 10 65 3 27 12 86 19 132 l13 82 -353 0 -352 0 -7 40 c-4 22 -6 43 -6 47
1 9 41 21 84 27 17 2 47 21 71 45 40 39 42 44 41 99 -1 43 7 76 31 135 27 67
30 84 22 113 -5 19 -11 85 -12 148 -2 62 -9 123 -15 134 -14 27 -47 36 -103
28 -24 -3 -46 -5 -50 -5 -4 -1 -22 -14 -41 -31 l-34 -29 -1 54 c-1 53 0 55 26
56 15 1 43 2 62 3 20 0 53 13 77 30 39 26 52 29 135 31 388 11 504 17 515 28
15 15 22 147 29 573 l5 341 -38 0 -38 -1 -3 52 c-3 49 -6 54 -42 77 -22 14
-44 25 -49 25 -12 0 -18 19 -27 83 -6 44 -10 49 -55 74 -31 18 -53 39 -60 58
-7 16 -26 44 -42 62 l-30 32 39 10 c25 7 57 29 89 61 34 35 60 52 85 56 61 10
69 14 88 47 18 29 18 39 9 100 -10 66 -12 69 -51 89 -34 17 -47 19 -84 10 -47
-10 -93 -10 -155 3 l-39 8 7 51 c4 28 10 54 14 57 3 4 65 10 136 13 72 4 139
8 150 11 11 2 33 4 49 4 l29 1 -7 248 c-6 246 -12 320 -25 334 -10 12 -101 27
-198 33 -48 3 -101 8 -118 10 -89 10 -247 19 -375 19 l-145 1 0 -324 0 -324
23 -4 c32 -4 62 -21 62 -34 0 -6 7 -35 16 -65 13 -47 21 -57 55 -74 36 -19 38
-23 28 -43 -13 -25 -89 -107 -100 -107 -3 0 -28 51 -55 113 -35 82 -64 132
-109 187 l-62 75 0 69 c-1 59 -5 74 -31 110 -26 36 -39 44 -101 61 -53 15 -81
30 -113 61 -41 38 -46 41 -100 39 -52 -1 -58 1 -58 20 0 17 -12 24 -71 40 -50
14 -74 26 -81 40 -5 11 -26 29 -47 41 l-39 21 -53 -22 c-51 -20 -54 -24 -70
-75 -19 -62 -20 -62 -24 0 -5 88 -17 255 -18 257 -1 1 -128 4 -282 8 -154 4
-322 8 -373 9 -56 1 -96 -2 -101 -8z m971 -248 c22 -24 27 -39 26 -76 0 -26
-5 -53 -11 -60 -7 -9 -1 -26 21 -61 28 -45 29 -53 20 -90 -8 -32 -16 -41 -39
-46 -16 -4 -29 -9 -29 -11 0 -2 13 -28 29 -57 26 -48 28 -55 17 -100 -10 -42
-17 -51 -60 -76 -67 -38 -107 -28 -176 42 -28 28 -50 54 -51 59 -1 4 -1 19 -1
33 0 74 2 81 33 99 21 12 27 21 20 29 -5 7 -15 34 -22 60 l-12 48 42 43 c37
37 41 47 41 90 0 63 24 104 64 108 44 5 57 -1 88 -34z m151 -64 c9 -3 15 -9
12 -14 -9 -15 21 -30 58 -28 52 2 105 -29 114 -67 4 -16 7 -34 7 -40 1 -6 33
-10 73 -11 66 -1 74 -4 102 -32 29 -28 31 -36 31 -101 0 -64 -2 -71 -19 -71
-12 0 -25 -11 -33 -27 -13 -27 -16 -28 -93 -28 l-80 0 -32 50 c-18 27 -35 54
-37 60 -2 6 -8 6 -15 -1 -9 -8 -24 -9 -51 -2 -36 9 -41 15 -56 62 -9 28 -31
74 -49 101 -34 50 -35 59 -20 135 2 8 4 19 4 23 1 8 38 4 84 -9z m1040 -22
c18 -19 19 -25 9 -60 -6 -21 -10 -47 -8 -58 2 -10 7 -52 11 -92 7 -71 6 -75
-22 -110 -17 -21 -29 -46 -27 -57 17 -116 16 -129 -16 -167 -17 -20 -36 -35
-43 -33 -7 2 -41 6 -77 10 -54 5 -70 11 -96 36 -17 16 -31 35 -31 42 -1 7 -5
33 -11 59 l-9 47 48 47 c27 27 49 52 49 56 0 5 -11 14 -25 20 -18 8 -25 19
-24 37 1 43 12 60 64 94 31 20 50 40 51 52 2 46 5 53 27 76 29 32 98 32 130 1z
m-1930 -141 c11 -10 25 -43 32 -72 8 -30 16 -63 19 -74 4 -13 -5 -37 -23 -67
-31 -48 -38 -51 -156 -63 -5 -1 -28 17 -50 38 l-39 40 -12 -29 c-16 -39 -54
-53 -109 -41 -37 9 -46 16 -61 49 -17 37 -19 39 -31 21 -9 -12 -28 -18 -54
-19 -51 -2 -79 30 -79 90 0 36 5 46 31 65 27 20 36 22 72 13 36 -10 43 -8 68
12 17 14 47 26 79 30 45 6 56 4 74 -13 21 -20 21 -20 46 0 41 33 76 45 127 42
30 -2 54 -10 66 -22z m1013 -230 l56 -53 91 4 c51 3 100 8 110 13 14 6 17 2
17 -22 l0 -30 -230 0 c-226 0 -230 1 -231 21 0 12 -2 30 -4 41 -2 11 -6 46 -9
77 l-6 57 75 -27 c57 -21 89 -41 131 -81z m-822 -40 l28 -30 -78 -39 c-69 -35
-88 -39 -149 -40 -38 0 -75 0 -82 -1 -6 -1 -29 -23 -50 -49 -38 -48 -38 -48
-98 -48 l-60 1 0 78 c0 76 0 79 30 97 24 15 39 17 66 11 19 -4 64 -9 99 -9 56
-2 72 2 115 28 70 42 140 42 179 1z m1185 -58 c54 -65 105 -224 72 -223 -12 1
-89 125 -99 160 -17 58 -22 100 -12 100 4 0 22 -17 39 -37z m-1104 -53 c28
-17 34 -29 50 -99 l18 -80 -27 -40 c-24 -35 -34 -40 -79 -46 -29 -4 -60 -9
-69 -10 -9 -2 -27 5 -40 16 -23 20 -23 20 -32 0 -6 -14 -22 -22 -55 -26 -25
-4 -56 -8 -68 -10 -12 -2 -34 6 -49 17 -19 16 -41 21 -85 21 -51 0 -62 4 -85
28 -23 24 -25 33 -19 68 l7 41 63 0 c55 0 63 2 60 18 -1 9 11 32 28 50 27 28
37 32 82 32 46 0 52 -3 69 -31 l18 -31 52 51 c44 44 56 51 90 51 21 0 53 -9
71 -20z m115 -61 c0 -5 -4 -9 -10 -9 -5 0 -10 7 -10 16 0 8 5 12 10 9 6 -3 10
-10 10 -16z m1440 -675 c0 -14 -3 -14 -15 -4 -8 7 -15 14 -15 16 0 2 7 4 15 4
8 0 15 -7 15 -16z m-1162 -59 c37 -46 39 -54 39 -112 -1 -86 -25 -117 -90
-116 -48 1 -53 -2 -38 -25 5 -8 4 -36 -3 -65 l-11 -51 -61 -19 c-54 -18 -62
-24 -77 -58 -9 -22 -21 -39 -27 -40 -88 -7 -106 1 -120 52 -10 36 -9 44 8 63
13 13 23 43 27 81 14 112 18 120 68 131 46 9 45 8 35 65 -5 29 -6 55 -1 58 5
3 23 25 41 48 l32 41 69 -1 69 -2 40 -50z m260 2 c20 -15 53 -85 68 -140 11
-44 11 -48 -7 -58 -14 -7 -30 -7 -52 0 -18 5 -52 13 -77 16 -25 3 -53 7 -62 9
-10 1 -20 5 -23 8 -9 8 -44 161 -39 169 6 11 178 7 192 -4z m963 -32 c1 -17
-18 -17 -25 0 -4 11 -1 15 10 13 8 -2 15 -7 15 -13z m-1284 -406 c26 -11 60
-33 75 -48 23 -23 35 -28 70 -25 44 2 55 -2 148 -52 46 -25 62 -29 98 -24 23
4 59 6 79 6 36 -1 36 -2 60 -71 23 -66 45 -255 30 -255 -4 0 -40 11 -82 25
-48 17 -103 26 -155 29 -75 3 -85 1 -127 -26 -25 -16 -60 -30 -79 -32 -30 -2
-35 1 -44 29 -6 18 -13 42 -15 54 -10 52 -16 58 -75 76 -69 21 -63 1 -62 197
0 65 3 122 7 128 9 14 17 13 72 -11z m848 -184 c3 -14 7 -36 10 -49 3 -15 0
-26 -10 -30 -19 -7 -23 1 -23 57 -1 50 14 64 23 22z m-1217 -35 c8 -4 13 -10
13 -13 -3 -19 0 -28 7 -24 4 3 30 8 59 12 64 8 126 -19 140 -61 7 -22 16 -28
48 -31 61 -6 100 -36 132 -101 24 -49 27 -64 19 -97 -11 -56 -76 -97 -162
-103 -73 -5 -108 12 -112 55 -1 16 -6 42 -10 58 -8 27 -13 31 -59 36 -65 8
-67 10 -83 59 -14 44 -31 62 -50 58 -7 -2 -26 19 -42 46 l-29 49 17 39 c17 38
18 39 58 32 23 -3 47 -10 54 -14z m729 -353 c37 -9 81 -36 102 -62 19 -26 21
-53 6 -140 -2 -11 -4 -29 -4 -41 -1 -12 -18 -33 -43 -51 -36 -25 -48 -29 -73
-22 -43 13 -52 6 -59 -44 -7 -44 -8 -45 -59 -62 -29 -9 -56 -22 -62 -29 -5 -7
-32 -27 -59 -43 l-49 -31 -48 20 -49 21 0 48 c0 47 2 49 40 69 40 20 40 21 40
79 0 57 2 61 39 90 34 27 43 30 66 21 37 -14 35 -17 49 75 4 22 15 45 27 53
11 7 32 25 47 38 16 14 35 22 47 20 11 -2 30 -7 42 -9z m735 -1519 c106 -25
50 -103 -101 -138 -78 -18 -122 -16 -232 13 -51 13 -109 50 -109 69 0 4 22 20
50 36 47 27 54 28 197 29 81 1 169 -3 195 -9z"/>
<path d="M6839 8758 c0 -7 -2 -42 -2 -78 -1 -36 -6 -71 -11 -79 -5 -8 -9 -46
-8 -85 0 -95 1 -96 12 -96 6 0 10 37 10 90 0 53 4 90 10 90 6 0 10 33 10 79 0
44 -4 83 -10 86 -5 3 -10 0 -11 -7z"/>
<path d="M7260 8610 c0 -6 12 -10 27 -10 29 0 24 12 -7 17 -11 2 -20 -2 -20
-7z"/>
<path d="M7355 8536 c20 -30 30 -33 39 -10 8 21 8 21 -28 30 l-28 7 17 -27z"/>
<path d="M8006 8661 c-11 -17 -3 -101 9 -101 7 0 10 19 9 50 -1 52 -7 69 -18
51z"/>
<path d="M7957 8450 c-4 -19 -9 -48 -12 -64 l-4 -29 24 23 c13 13 22 27 18 33
-3 6 -9 24 -13 41 l-7 31 -6 -35z"/>
<path d="M5774 8581 c-16 -17 15 -21 151 -21 121 0 153 3 149 13 -3 9 -41 12
-150 12 -80 0 -148 -2 -150 -4z"/>
<path d="M6198 8173 c-8 -10 4 -13 57 -13 45 0 65 4 63 11 -5 16 -107 17 -120
2z"/>
<path d="M7006 6301 c-27 -28 -27 -30 -8 -40 16 -9 25 -5 52 20 25 25 29 33
19 40 -23 14 -34 11 -63 -20z"/>
<path d="M3164 8836 c-4 -9 -4 -103 -2 -209 4 -146 9 -201 21 -229 9 -21 19
-38 22 -38 3 0 4 4 1 8 -3 5 -7 84 -11 178 -10 285 -15 332 -31 290z"/>
<path d="M4117 7445 c-9 -8 -13 -47 -12 -121 l0 -109 120 0 c116 0 121 1 151
27 27 24 31 34 33 88 2 47 -3 69 -19 95 l-21 33 -120 0 c-82 0 -124 -4 -132
-13z"/>
<path d="M6860 7184 c0 -9 14 -12 52 -9 31 2 58 -1 67 -8 21 -17 110 -17 104
0 -4 9 -20 13 -50 11 -27 -1 -48 3 -52 10 -11 17 -121 13 -121 -4z"/>
<path d="M2910 6330 c7 -14 21 -20 43 -20 l32 1 -35 19 c-45 25 -53 25 -40 0z"/>
<path d="M6402 5558 c-4 -18 -8 -60 -7 -93 l0 -60 60 -25 c44 -18 84 -25 152
-28 l91 -4 0 121 -1 121 -143 0 -143 0 -9 -32z"/>
<path d="M1781 4662 c-6 -2 -8 -31 -5 -70 11 -145 59 -316 147 -529 l51 -123
182 0 182 0 -1 363 0 362 -273 0 c-151 0 -278 -1 -283 -3z"/>
<path d="M6809 4643 c-7 -20 -13 -105 -10 -160 2 -41 49 -61 152 -68 155 -9
262 -27 338 -55 65 -25 95 -84 94 -190 0 -65 -7 -104 -39 -212 -5 -16 5 -18
105 -18 99 0 111 2 112 18 1 22 1 649 0 682 l-1 25 -371 0 -371 0 -9 -22z"/>
<path d="M2399 3845 c-3 -79 -1 -336 4 -341 7 -7 54 -11 209 -19 112 -6 131
-4 159 12 l31 18 -5 90 c-4 71 -12 106 -36 165 -18 41 -36 79 -41 84 -4 4 -78
9 -164 10 -150 1 -156 0 -157 -19z"/>
<path d="M7657 3862 c-15 -3 -17 -24 -17 -195 l0 -192 76 -42 c114 -64 105
-65 146 29 49 113 142 387 135 395 -7 6 -310 11 -340 5z"/>
</g>
</svg>
