<svg viewBox="0 0 1000 1000" xmlns="http://www.w3.org/2000/svg"><rect fill="#e5e9f0" height="1000" rx="199.9" width="1000"/><g fill="#1789c1"><path d="m541.16 724.43 2 8z"/><path d="m499 718.4 2 4-10.05 2z"/><path d="m764.18 613.92h36.17c-5.35 16.5-10.66 32.55-18.08 48.22-8-4-8-4-18.09-10z"/><path d="m239.77 613.92h32.14c8 18.09 8 18.09 8 34.16l-6 4-34.15-2z"/><path d="m681.8 533.55h74.35v72.34h-22.1l4-14.07c1-15.39 1-15.39-4-26.12-15.71-5.7-15.71-5.7-48.23-8l-6-4c-.02-14.12-.02-14.12 1.98-20.15z"/><path d="m177.48 533.55h56.26v72.34h-36.17c-9.83-22.95-20.09-47.02-20.09-72.34z"/><path d="m547.18 457.2 4 2v6l10 8v12.06c-18.08-6-18.08-6-20.09-8v-10zm4 14.06-2 6 8 2-4-8z"/><path d="m641.62 441.13h28.13v24.11c-16.07 0-16.07 0-30.14-6 0-14.1 0-14.1 2.01-18.11z"/><path d="m774.23 400.94 2 8z"/><path d="m223.69 398.93 4 6-2 8z"/><path d="m776.24 392.9 2 8z"/><path d="m221.68 388.88h2v10.05h-2z"/><path d="m778.25 382.86 2 8z"/><path d="m703.91 366.78 4 2-6 6-4-2z"/><path d="m290 364.77 8 4h-6z"/><path d="m213.65 328.61 6 2h-6z"/><path d="m707.93 284.4 8 2z"/><path d="m697.88 282.39h10v2h-10z"/><path d="m292 282.39h10v2h-10z"/><path d="m231.73 282.39 4 2-2 4z"/><path d="m685.82 280.38h12.06v2h-12.06z"/><path d="m302.05 280.38h14.07v2h-14.07z"/><path d="m223.69 272.35 4 2-2 4z"/><path d="m217.66 264.31 4 2-2 4z"/><path d="m412.56 254.26h24.11l4 6v12.06l-6 6h-24.12v-22.1z"/><path d="m619.52 181.93h12.05v2h-12.05z"/><path d="m796.33 151.79 2 8-4 4z"/><path d="m798.34 143.75 2 8z"/><path d="m734.05 143.75 6 2-2 4z"/><path d="m577.32 141.74h30.14v2h-30.14z"/><path d="m394.48 141.74h28.13v2h-28.13z"/><path d="m681.8 139.74h2v18.08h-2z"/><path d="m267.9 139.74 4 2h-6z"/><path d="m199.58 139.74 4 8-2 8z"/><path d="m726 137.73 6 2h-6z"/><path d="m800.35 133.71h2v10h-2z"/><path d="m197.57 131.7 2 8z"/><path d="m683.81 123.66h2v16.08h-2z"/><path d="m316.12 115.62h2l2 48.23c-4-8.04-4-8.04-4-48.23z"/><path d="m595.41 83.48 74.34 2c1 16.91 1 16.91 2 34.16l4-14.06 10-4 8 4 2 4 14.06 4v4h12.19l8 8 14.06 4 6 8v14.06l12.06 14.07c3.31 7.95 6.63 15.91 10 24.11 9.52-8.46 9.52-8.46 12.06-14.07l-8-4c-1.33-4.64-2.65-9.28-4-14.06l-8-2v-64.18c24.87 0 24.87 0 36.13.88l7.2.55 7.28.58 7.54.58c18.08 1.4 18.08 1.4 26.24 3.44 2.41 19.28 2 38.83 2 58.27-12.51 1.25-23.77 2.24-36.16 2-.67 4-1.33 8-2 12.05 13.43 2.72 13.43 2.72 24.11 0l8 4 2 14.07-4 6-10 2-10 10-8 2 6 6c.67 2 1.33 4 2 6l10 6c.66 4 1.33 8 2 12.06l8 4 2 2v10h8c.21 30.23 0 60.25-2 90.42l-2 2-60.27 2-8 6h-12.05v12l6-6 10-2 6 2c3.37 6.75 2 14.65 2 22.11.67 4 1.33 7.95 2 12.05-2 4.64-4 9.28-6 14.07v12l-8 8-12.06 2c1 5 1 5 2 10.05h70.33c-8.63 57.41-8.63 57.41-14.07 82.38l-2 2c-60.28 0-60.28 0-78.36-6l-8-6c-7.25-16.32-10-26.91-10.17-44.08 0-2.59 0-5.17-.07-7.84.21-8.84 1.23-17.65 2.21-26.44h-54.23c-1-14.92-1-14.92-2-30.14l-4-4v-13.69l6-2v-26.13l-4 2h-14.09l-8-8v-6h-46.25a232.58 232.58 0 0 1 10.3-25.87l3.28-7 2.5-5.29c.9-11.75.9-11.75-4-20.09l-22.1-8v-24.23c18.58-9.29 41.51-2 62.28-2 1.33-3.31 2.66-6.63 4-10l6-4h8l2-4-10 2-2 2h-16.05l-14.07 2-10-10.05 2-10 4-4 8 2-8 6 2 8 2 2h12.06l2-6 4 4h10c.67-3.31 1.33-6.63 2-10l8 6 12-4c1.33-4.64 2.66-9.28 4-14.06h4l6 10.05v4l-10 4-2 6 6-4 14.07 2c12.29 16.03 12.29 16.03 16.29 34.12l10 4c1 7 1 7 2 14.06l-4 2-4-14.06-10-2-8 4c-.67-2-1.33-4-2-6h-14.15l-6 6h-6c-.67 4-1.33 7.95-2 12.05l4 2 2-6h2c1.33 4 2.66 8 4 12.06l10 2c.66-3.32 1.32-6.63 2-10.05h2c1.32 4 2.65 8 4 12.06l2 2 14.07-2 4-8h4v10.05l6 14.06c1 12.93 1 12.93 2 26.12l-6 2-14.07-6h-15.94l-10 6h18.08l22.11 12.06c6 14.87 7 30 5.14 45.93-3.12 30.32-3.55 60.24-3.14 90.7l4 8 16.08-6c20.09 0 20.09 0 32.15 2-1.79-3.14-3.57-6.29-5.4-9.54-11.54-21.08-16.71-35.94-16.71-60.78l16.08-4v-18.05h4c1.34-16.89 1.34-16.89-4-26.12h4v-12.1h-10l-4 10.05 2 4-10.05 2-2 12.05 10 2c-6 2-6 2-12.05 2-.67 6-1.33 11.94-2 18.08l-2 4-4-8c1-6 1-6 2-12.06l4-4v-14.04l2-2c.66-11.94 1.32-23.87 2-36.17l18.08 2 4-2 4-10.05c.66 1.33 1.32 2.66 2 4l14.06-6c.66-4.64 1.33-9.28 2-14.06l8 2v-14.08c-11.76-.89-11.76-.89-20.1 4l-10 2c-.67 2.65-1.33 5.31-2 8-.66 1.33-1.33 2.65-2 4l-8-4-6 2c-4.76 8-4.76 8-4 18.08l-6-2c-1-17.9-1-17.9-2-36.16h16.07l6-6c.66-3.32 1.33-6.63 2-10l10-4 2-2v-16.11l8-8c-1.32-2.65-2.65-5.3-4-8l-10-2 4-4-8-10.05v-14.16l-10 4c-10.42 13.9-12.94 31.37-16.07 48.22h6c.66-3.32 1.32-6.63 2-10l4-6h12.06c.66 1.33 1.33 2.66 2 4l-14.07 4c.67 4 1.33 8 2 12.06l-14.06 2c-1.33 2-2.65 4-4 6v14.07l-4-2v-16.08l4-6c1.33-10 2.65-19.89 4-30.14 2.65-6.63 5.3-13.26 8-20.09l10-8h14.07c2 6 2 6 4 20.09 8.33 2.69 8.33 2.69 18.08 0-.66 3.32-1.33 6.63-2 10.05l4 4 14.06 2 6 6 8-2c.66-2.65 1.32-5.3 2-8l-4-4h-8v-12.13l-8-4-6 2v-12l-6-4-4 2c-14.06 0-14.06 0-26.12-4l4-2c-.66-2.65-1.33-5.3-2-8l12 8h12.06l4-6 14.06-2c2.66-3.31 5.31-6.63 8-10h8c.66-4 1.32-8 2-12.06l-14.07-2c-.66 2-1.32 4-2 6l-6-4h-10c-.66 4-1.33 8-2 12.06l-6-8h-12.01l-4 4c-.67 3.31-1.33 6.63-2 10h-8l-4 6c-.66-2-1.32-4-2-6l-6 6-6-14.06h-18.24v-4h-18.06l-6 4-2-4-10 2 2 10 10 4 6 8h12l4-6 4 12.06 10 2 12.18-10.15c-2 8-2 8-10 20.09-10.18 28.23-10.18 28.23-14.12 50.28-4-8-4-8-8-26.13-15.75-29.24-32.81-53.16-56.26-76.35v-4l-8-4q-5.29-3.11-10.55-6.28l-5.43-3.28-4.11-2.5h-6l26.12 22.1-4 2v4l10 2c13.99 12.07 13.99 12.07 18.01 22.07l-18.08-4-12.06 10v-4l-14.06 6-6 8 2-10.05c10-8 10-8 22.1-12.06l8-6c-7.76-6.73-7.76-6.73-18.08-8l-2 10-8 6h-18.11l-12.06 4c-22.1-6-22.1-6-26.12-8v50.24h-22.1l12.05-26.12 2-14.07-6-12.06c-15.24-8.49-15.24-8.49-48.22-10l-6-6c0-12.06 0-12.06 2-16.07l56.26-2-16.07-6c-3-5-3-5-6-10.05l4-12 16.07-2 10.05-6h6l2-40.19zm84.39 22.1-4 6v10l-8 8c.66 3.31 1.33 6.63 2 10.05l2 2-6 4v12.06l10 10 8 2 10.05-6c.66-3.32 1.33-6.63 2-10l-6-10.05 6-2c.66-2.65 1.33-5.3 2-8l-6-10.05 2-2v-10l-6-6zm18.08 8c-.66 4-1.33 8-2 12.06l6 8 4 12 8 2 2-2 6 10.05 2 2h16.07c.67-2 1.33-4 2-6h4v-13.96l-6-6h-13.95c-.66-2.65-1.33-5.31-2-8l-6-4h-10v-4zm100.46 2-4 6v6l-10 6c-.67 2.65-1.33 5.3-2 8l6 4-10 10.05c.66 4 1.33 8 2 12.05l6 6 16.07 2 6-8c-.66-4.64-1.33-9.28-2-14.06l2-2 4-6c-.67-6-1.33-11.93-2-18.08.66-2.65 1.32-5.3 2-8l-4-4zm-194.9 14.07-8 6-4-4-12.06 2-4 4-8-2-6 4v10l4 4h8l2-4 4 8 8 2 6-2 2-6 8 8 14.07-2 6-10-2-4-2-10-4-4zm94.44 14.06c.66 6.63 1.32 13.26 2 20.1h46.22v-6l-8 2h-14.1l-10-10.05zm-74.34 12.06-10 6c-12.06 0-12.06 0-20.09-2l-6 4v16.07h12c2.66-3.31 5.31-6.63 8-10h16.08l16.07-8-6-6zm126.58 4c1.45 13.44 1.45 13.44 12.06 28.13l2-4c-6.28-17.01-6.28-17.01-14.06-24.07zm-116.54 8-10 10-4-6h-10l-6 6v4h-12.19l-2 8 6 6h12.05l4 4 14.07-2 2-4 4 4 14.07-2 6-8-4-16.08-6-4zm20.1 6v4l4-2zm110.5 14.23 2 4zm32.15 54.25 4 4v-4zm-130.6 2c-2.65 3.31-5.3 6.63-8 10l2 10.05-8 2-2 2-2 16.07-4 4 2 8 2 2h10l4-8 12.06-4c.66-3.31 1.32-6.63 2-10l-2-4h10c1.33-2 2.66-4 4-6v-12.11l-8-10zm24.11 4c1.33 6 2.65 11.93 4 18.08l14.07 2 6 2 4-2c-2.61-10.92-2.61-10.92-8-20.09zm112.52 2c.66 1.33 1.33 2.66 2 4l4-2zm-130.6 40.19-2 2v30.14l12 4c1.33 4.64 2.66 9.28 4 14.06h6l10-6c16.07 0 16.07 0 32.15 6 .67-15.31.67-15.31-6-34.16l-16.08 2-4.77-2.88c-3-1.82-6.12-3.57-9.29-5.15h-10l-6-6zm88.41 18.08v12.06l4-2-2-10.05zm-128.6 4-4 8 6 10.05h4c1.33 3.31 2.65 6.63 4 10a61.51 61.51 0 0 0 12.06 2l2 12.06c5.07 2.9 5.07 2.9 16.08 2l10-6 2-8-6-12.05c-7.44-4.47-7.44-4.47-14.07-4-.66-2-1.32-4-2-6l-8-4-12.06 2v-4zm76.36 36.17c-3.32 2.65-6.64 5.3-10 8-.66 4-1.33 7.95-2 12.05l-6-2-8 6v12.06l-8 4v10.05l10 4 10.05-6v-2l12.06-4c.66-3.31 1.32-6.63 2-10l8 2 8-6c.66-6 1.33-11.94 2-18.08-6.21-7.1-6.21-7.1-18.11-10.07zm44.2 152.7-10 6 6 6c21.19 5.42 21.19 5.42 38.18 0l6-4v-6c-12.72-4.22-26.77-1.99-40.18-1.99z"/><path d="m490.92 83.48h12.08l6 6v14.07l18.08 4 6 10c-4 16.08-4 16.08-18.08 42.2-2.58 8.93-2.58 8.93-2 22.1l6 8 5 .73c13.83 2.08 27.52 4.44 41.21 7.3l8 10.05c-4 18.08-4 18.08-18.08 44.2-2.58 8.93-2.58 8.93-2 22.11 6.87 7.72 6.87 7.72 12.06 10l34.15 4c10.05 6 10.05 6 12.06 8 0 16.07 0 16.07-16.07 48.22-.67 6-1.33 11.94-2 18.08 2 3.32 4 6.63 6 10.05 15.84 5 15.84 5 40.19 6 10 6 10 6 14.06 12.05-2 14.07-2 14.07-5.45 21.33l-4.47 9.44c-1.46 3.1-2.93 6.2-4.45 9.4-5.27 11.44-5.72 14.7-5.72 28.15l10 10 42.19 6 6 6c0 18.08 0 18.08-18.08 56.26v18.08l6 6 5.07.74c36.68 5.46 36.68 5.46 47.17 13.33 0 16.07 0 16.07-3.45 23.33-1.47 3.12-3 6.23-4.47 9.44s-2.93 6.2-4.45 9.4c-6 13.15-5.72 15.83-5.72 32.17.67 2 1.33 4 2 6 13.6 3.06 13.6 3.06 42.2 2l14.06 6c2 4 2 4 2 16.08-20.08 42.23-44.36 81.9-76.34 116.22-3.73 4-7.28 8.19-10.81 12.37-41.29 45.57-98.25 80-156 100.46-25 8.18-25 8.18-42.19 6-60.32-19.56-113.17-47.92-159.62-91.73-5.45-5.15-5.45-5.15-13.18-10.74v-4h-4c-35.23-39.23-62.87-81.54-86.4-128.59v-11.61l8-8c13-3.26 26.77-2 40.18-2l10.05-2c3-7.83 3-7.83 2-24.11-8.93-22.83-8.93-22.83-18.08-38.18v-18.13l6-6a306.09 306.09 0 0 1 42.2-6l10-8c1.29-22.4 1.29-22.4-18.08-56.26-.66-4-1.32-7.95-2-12.05 3-5 3-5 6-10 10-4 10-4 44.2-8l10.05-10c0-21.47-10.37-39.38-20.09-58.27.66-4.64 1.32-9.28 2-14.06 6-6 6-6 12.05-8l36.17-4 8-6c3.37-15.72 3.37-15.72-6-36.17-3.32-6-6.63-11.93-10.05-18.08v-18.4l6-6c18.08-4 18.08-4 40.18-6l10-6c3.06-5.36 3.06-5.36 2-18.08-7.57-20.14-7.57-20.14-18.08-38.17-.67-4-1.33-8-2-12.06l6-10.05c8-4 8-4 42.19-8l10-6c3.05-5.37 3.05-5.37 2-18.09-7.57-20.14-7.57-20.14-18.09-38.17-1-6-1-6-2-12.06l6-10 18.08-4zm-48.22 217-16.07 6c-8.37 9.47-8.37 9.47-12.06 20.1v20.09l8 12.06c15.77 9.38 15.77 9.38 34.16 8l12.05-2c40.19 0 40.19 0 66.31 4 19.91 1.27 19.91 1.27 36.21-5.97 9.83-10.86 9.83-10.86 14.06-20.09v-14.06c-7-12-7-12-16.07-18.09h-22.11l-6 6 18.08 2 8 8v12l-8 8-14.07 2c-12-6-12-6-28.13-20.09-7.82-3-7.82-3-24.11-2-17.26 8.93-17.26 8.93-28.13 18.08-4 2-4 2-20.09 2l-8-8-2-10 4-8c10.05-4 10.05-4 26.12-2l-2-10.05c-8.07-6.92-8.07-6.92-20.15-7.98zm42.2 126.58c12.94 15.1 27.12 27.32 42.19 40.19l6-6v-10.08c-14.48-8.63-29-16.75-44.2-24.11zm54.25 20.09-6 18.09-4 4c-.66 2.66-1.33 5.31-2 8h-16.15c-.67 2-1.33 4-2 6l12 18.08c-2 10.05-2 10.05-12 22.11l-5.51 3.57c-28.4 18-28.4 18-50.74 42.75-3 7.83-3 7.83-2 24.11-1.33-6.63-2.65-13.26-4-20.09l-12.06 10c-2.75 7.2-2.75 7.2-2 20.1 7.29 21.59 7.29 21.59 26.12 40.18l6.6 5.36 8.72 7.07c1.43 1.17 2.86 2.33 4.34 3.52 16.33 13.27 26.15 22.52 38.6 40.31 1.33 6.63 2.66 13.26 4 20.09 7.56-6.72 7.56-6.72 12.06-22.1l4 10.05 12.05 2-8-14.07v-10l12.05 14.06h4c3.55 8.86 6.48 17.64 9.29 26.75.9 2.89 1.8 5.79 2.72 8.77l2.06 6.68 12.05 10 6-2-10-20.09-1.54-4.78a325.52 325.52 0 0 0 -12.52-33.4c12.05 18.09 12.05 18.09 18.08 40.19 8 7 8 7 20.09 8l2-4-10-4a123.15 123.15 0 0 1 -12.94-23.74c-.91-2.16-1.82-4.33-2.75-6.56q-2.4-5.88-4.41-11.9c5.44 8.67 10.86 17.33 16.08 26.12l12.05 2-8-10c-3.32-8-6.63-15.92-10-24.11-17.62-30-17.62-30-32.15-46.22-.66 1.33-1.32 2.66-2 4 .67 2.65 1.33 5.31 2 8l-12.05-6c-14.07-28.13-14.07-28.13-14.07-46.21l4 8 6-6 6 14.06h6v-10l10 8h6a129.72 129.72 0 0 0 2-18.08l10 10 8 2 2-2v-16.02c3.31 3.32 6.63 6.63 10 10.05h8c-.66-7.3-1.32-14.59-2-22.1l10 10c.9-14 .9-14-10-32.15l16.08 16.08h4c-1-6-1-6-2-12.06l-10-12c10 6 10 6 14.07 10l8-2c-1-6-1-6-2-12l-8-10.05 12.05 2v-8l-8-6h-4v-4l14.06 4v-8l-6-4h-6v-4l16.07 2-4-8-6-4h-8l-2 4-6-18.08-10-6 4 12.06c4 20.09 4 20.09 0 34.16l-6 6h-14.17l-12.06 6c-5.1 13.27-9.63 26.69-14.06 40.19l-8 12-12.05 2-10-10-30.14-2-2-2 2-14.07c11.93-14.23 11.93-14.23 16.52-17.1l6-3.79 5.94-3.74c4.67-3.05 9.19-6.35 13.65-9.69v-2c8.7-1.49 17.39-2.77 26.13-4 2.44-34 2.44-34-8-54.25l-12.11-14.1zm-72.34 4c12.29 12.29 30.53 16.64 46.22 24.11l12.05 2v-6c-18.63-16.7-18.63-16.7-50.23-20.09zm-78.36 26.12-8 8-4 16.07c-.67-1.32-1.33-2.65-2-4h-10.11c-2.65 2.66-5.3 5.31-8 8v4h14.07l-10.05 6v6h12.06l-12.06 10c.67 2 1.33 4 2 6l8-2h4l-8 10.05c-.66 4-1.33 7.95-2 12l6 2 16.07-12-3.76 4.64a86.83 86.83 0 0 0 -8.29 11.43v8h8l10.05-14.07c-2 8-2 8-8 20.1v10l8-4 2-4c-.66 6.64-1.33 13.27-2 20.1l8 2 10-8v14.06l6 2 12.06-10c1.32-6.63 2.65-13.26 4-20.1l2-4c-7.76-34.82-7.76-34.82-18.08-44.21l-24.11-4-6-10c0-24.11 0-24.11 6-36.17v-4zm251.16 16.08 4 8 14.06-2c2.66-3.31 5.31-6.63 8-10-8.75 0-17.39 2.44-26.06 4.02zm-307.42 0 10.05 10 12.05 2 4-8-2-2zm311.44 14.06c.66 3.32 1.32 6.63 2 10.05l12.05 2v-4zm-291.35 4-12 8v2h10l4-4c-.65-1.92-1.28-3.91-2-5.96zm289.34 10.09v12l2 2h16.08c-5.96-4.74-11.96-9.41-18.08-14zm-287.33 4-16.07 12.06v2c12.72 1 12.72 1 18.08-2 .67-4 1.33-8 2-12.06zm281.3 12.06c1.33 5.3 2.65 10.61 4 16.07l10 4 6-2-4.39-3.39a191.2 191.2 0 0 1 -15.61-14.67zm-277.28 4c-8.94 9.44-8.94 9.44-16.07 20.09 9.46-1.68 9.46-1.68 16.07-4 1.33-5.3 2.66-10.61 4-16.07zm271.25 18.08v12.06c12.18 8.77 12.18 8.77 28.13 14.06h20.1l-8-4q-5.79-3.12-11.55-6.28l-6-3.28c-4.55-2.49-4.55-2.49-14.6-12.54zm-267.23 2-16.07 14.07-20.1 10-6 4c17.47.92 17.47.92 38.17-8l10.05-6v-12.02zm257.19 12.06v10c19.88 15 19.88 15 44.2 24.11h16.08a245.17 245.17 0 0 0 -21.48-12.3l-8.32-4.33-6.38-3.38-16.08-14.06zm-249.15 4-20.09 16.07-28.13 14.06-6 4c17.95 1 17.95 1 40.18-10l22.11-14.07v-10zm241.11 12c-.66 4-1.33 8-2 12.06 17.84 17.25 17.84 17.25 42.2 28.13h10l-4.35-3.49c-14.74-11.79-27.29-22.34-39.85-36.7zm-231.07 4-14.06 16.2-30.14 24.1c16.14-1.46 16.14-1.46 36.17-14.06l16.07-14.06v-10zm213 6c-1.33 4.64-2.66 9.28-4 14.06 18.3 21.69 18.3 21.69 42.19 36.17-4.18-8.37-8.71-16.47-13.31-24.61l-5-8.83-3.82-6.75c-.66-2-1.32-4-2-6zm-190.88 4-12.06 4-14.07 28.3-12.06 18.09c15.66-4.29 15.66-4.29 36.17-26.09l8-10c-1.51-8.12-1.51-8.12-5.99-14.12zm168.78 2-6 10c7.44 18.62 19.19 31.38 34.15 44.21l4-2-12.07-17.91c-4-12-4-12-6-26.12zm-36.17 4c-.66 2.66-1.33 5.31-2 8 2.65 6 5.3 11.94 8 18.08 2.75-7.19 2.75-7.19 2-20.09l-4-6zm-110.51 0-12.06 8c-1.32 6.63-2.65 13.26-4 20.09-10 20.1-10 20.1-14.06 26.12 16.83-8.41 23.17-18.46 34.16-34.15 1.32-3.32 2.65-6.63 4-10zm128.59 2-4 4c1.78 12.18 1.78 12.18 14.07 28.13l2-4c-1.33-7.95-2.65-15.91-4-24.11zm-116.55 16.3c-1.32 6.63-2.65 13.26-4 20.09l10-10.05c-.66-2.65-1.32-5.3-2-8zm112.52 6 2 4zm-6 2 2 4zm-56.28 38.2c1.32 4 2.65 8 4 12.06l-2 20.09c9.47-5.14 9.47-5.14 14.06-10.05l6 10.05 6 4c-1.79-12.92-1.79-12.92-18.09-30.14zm-42.2 56.26c-36.17 12.06-36.17 12.06-60.28 12.06l-4.85-2.87-6.45-3.79-6.36-3.74c-6.07-3.46-12.22-6.63-18.5-9.7l-8 2 2 8 18.08 6-8-2-10-2c-.66 4.64-1.33 9.28-2 14.06h24.11l12.06 6-20.1-4v8l6 10 6 2 8-2h30.14l4-2c-.66 2-1.32 4-2 6l6 6 10.05 2 8 10 6 2 6-8v-4l-24.01-11.84c-6-16.08-6-16.08-6-20.1 21.55-8.62 41.29-15.16 64.3-20.09v-4l12.05 6c11-3.62 11-3.62 20.1-14.07l-4-8-2-4c-18.87-.04-44.17 17.86-60.34 26.08zm88.41-22.1c-6.36 11.19-6.36 11.19-7.43 21-11.69 73.64-11.69 73.64-24.69 99.55-10.05 8-10.05 8-14.06 10.05h-46.25l-2 4 4 6h8l-4 2 2 14.06 20.13-10.02h4l-8 6 12.06 10.05c11.45-4.24 11.45-4.24 26.12-14.07l14-5.98 6 4h20.1l12.05 4 4-4 12.06 2-6-10c-10.85-5.43-24.06-3.26-36.17-4l-6-6c-5.61-22.45-.42-42.1 4-64.3 12.73-30.8 12.73-30.8 22.1-40.18-1.51-10.5-1.51-10.5-8-20.09zm-200.93 18.08-4 4h10.05v-4zm0 12.06c-1.32 2.65-2.65 5.3-4 8l10.05-2v-6zm18.09 20.09c-.67 3.31-1.33 6.63-2 10l8-4c-.66-2-1.32-4-2-6zm94.43 28.13c-.66 2-1.32 4-2 6l6 6c.66-3.31 1.33-6.63 2-10zm-8 58.27-4 8 8-4c-1.34-1.31-2.71-2.64-4.04-3.99zm4 12c-.66 2.66-1.32 5.31-2 8l6-2v-6zm26.12 8c-.66 3.32-1.32 6.63-2 10l6-4c-.66-2-1.32-4-2-6z"/><path d="m410.55 83.48h70.33v14.06l-16.08 8-4 10c3.22 20.71 3.22 20.71 14.06 40.19l-38.18 2-18.08 6-16.07-2v16.07l10 2 2 2v12.2c-6 6-6 6-10 8l-2 46.22h-58.28c3 11.9 3 11.9 10 18.08 1 7 1 7 2 14.06l-2 4h6l2 10.05-6 8h-14.01l-6-6v-4l-12 2c-.67 9.94-1.33 19.89-2 30.14l12.05-2 4-8c4-2 4-2 20.09-2 1.33-1.32 2.66-2.65 4-4l10.05 2c1.32 3.32 2.65 6.63 4 10.05a273 273 0 0 1 -16.08 24.11l-8 2v4l46.22 2c.66 2.65 1.32 5.3 2 8l-6 8c-11.12 2.78-22.73 3.14-34.16 4l-16.07 8-4 8c1.15 19.84 1.15 19.84 14.06 42.2v4h-26.23c-1-14.92-1-14.92-2-30.14h-16.08c-1.33-2.65-2.65-5.31-4-8h-10.09l-6-8-14.07-6-6-12.06c-4.75 9.5-2.17 23.74-2 34.16.53 12.07 1.26 24.11 2 36.17h50.23l2 2v22.11l-14.07 8h-4c-3.07 8.15-3.07 8.15-2 26.12 3.26 8.75 6.58 17.46 10.05 26.12h-72.37v-4l-10.05 2-18.08-4-10-10.05c3.47-17.34 13.87-32.57 22.1-48.22 2.65-8.62 5.31-17.24 8-26.12h-72.34c-2.68-14.73-4.9-28.65-6.28-43.45-.34-3.51-.68-7-1-10.63-.68-9.41-.74-18.87-.74-28.3h64.29c-1.32-3.32-2.65-6.63-4-10.05l-14.07-2-8-8v-8l-8-4-2-2v-14.07l4-4c12.05 0 12.05 0 22.1 4l14.06 2 6 8 12.06 4c.66-3.32 1.32-6.63 2-10.05h-12.11l-8-8v-10.02l-8-2-6-6c-.66-4.64-1.33-9.28-2-14.06l-6-6c-.66-3.31-1.32-6.63-2-10.05l-8.44 2.68-21.85 7.28-8-4c-1-5-1-5-2-10h-8v-82.42l2-2h38.18c-.67-4.65-1.33-9.29-2-14.07-1.38-9.66-2-14.29 0-24.11v-10l8-6 12.06 4 4 6v8l8 2 6 18.08c1.33 2.65 2.65 5.31 4 8v8h6c.66 2 1.32 4 2 6l8-14.06h-4v-64.19c27.13-4.52 54.92-4.36 82.38-4 1 9 1 9 2 18.09l4 6c-.66 2-1.32 4-2 6l-6-10-10.05 2-4 12.05 4 2-4 6v14.06l6-2-4 8v14.07l8 4 8-2 10-10.05c-.66-3.32-1.32-6.63-2-10.05l-10-4v-2h10l-4-14.07-6-6 10 2 4 6v14.06l6 12.06 16.07-8 16.08-2 2-14.06 12.05-6c12.06 2 12.06 2 16.08 4l4-2zm-114.55 30.13-6 6-12.06 2c-1.32 2.65-2.65 5.31-4 8l-16.07 4-4 6v10l8 8h16.07l6-8v-6l2 4 10-2c8.78-18.35 8.78-18.35 8-32.15zm-104.49 2-2 2v10.05c0 6 0 6-2 16.07 1.32 2.66 2.65 5.31 4 8h4c-1.32 2.65-2.65 5.31-4 8 1.3 9.81 1.3 9.81 6 16.07l12.06-2h6l6-8v-12l-10-8 6-2c-.66-3.31-1.32-6.63-2-10l-10-6c.66-1.33 1.32-2.65 2-4l-6-8zm192.89 14.07-6 8v14.06l10 8 12.06-2 2-8h4l2 8 8 2 10.05-10.05 2 4h8l4-12.06-6-6-10 2-8-6-10 2h-4l-4-4zm-12.05 20.09-12.06 10.05 6 4h20.09l-12.05-14.07zm-96.45 10.05h-22.1l-6 22.1 12.06 2 6-4c14.06 0 14.06 0 22.1 2h10l6 6c9.52-8.46 9.52-8.46 12.06-14.07l-12.06-6-6-12.05c-13.39-1.04-13.39-1.04-22.03 4.03zm-28.13 0c-10.07 17.95-10.07 17.95-12.05 30.14 10.16-9 10.16-9 16.07-30.14zm110.51 8-8 10 2 6-4 2 10 12.05 14.07-2 2-4 4 8 14.06-2 2-4 10 2 8-8-4-6-10-2-8-8h-10l-2 10.05-4-8-6-6zm-20.09-6c-31 27-53.2 56.13-72.33 92.42-.67 5.31-1.33 10.61-2 16.08-2.65-9.95-5.31-19.89-8-30.14l-4.9-10.8-2.75-6.08c-1.42-3.1-2.88-6.19-4.41-9.24l12.06 4 10-10 2 2h12.14l6-8 10-4 4-4c-.66-3.32-1.32-6.64-2-10.05-9.65-2.27-9.65-2.27-18.08-2h-14.03l-4 2v4l-4-2h-12.1l-6 6c-.67 2.65-1.33 5.3-2 8-.67-3.31-1.33-6.63-2-10l-4 2v10h-4c-1-4-1-4-2-8h-6c-1.32-4-2.65-8-4-12.06-5.06-2.91-5.06-2.91-16.07-2l-4 4c-1.32-2.65-2.65-5.31-4-8h-10l-6 6c-.66-2-1.33-4-2-6h-10.31l-4 4 2 10.05 10 4 8 8h10l8 8h12.06l8-8c.67 2 1.33 4 2 6-10.7 5.35-20.31 4-32.14 4l-4 6c.66 3.31 1.32 6.63 2 10h-4v-4l-10.05 4c-.66 2.66-1.33 5.31-2 8 .66 1.33 1.33 2.65 2 4l-10 2-2 2v10l10 4 6-4c.66-1.32 1.33-2.65 2-4h12.05l6-6c-.66-2.66-1.32-5.31-2-8 4.74 0 9.4 1.23 14.07 2l6-6c2.33-7.95 2.33-7.95 2-16.07h12.06l10 8c8 22.11 8 22.11 10 48.23l6 10v8c-1.33-4.64-2.65-9.28-4-14.06l-6-4h-8v-9.8l-4-4-10-2c-1.32-2.65-2.65-5.3-4-8l-2-2h-10l-4 4v10.05l8 4c-.67 4.64-1.33 9.28-2 14.06l6 8h8c.67 4 1.33 8 2 12.06l6 6 18.08-2c-1.32 5.3-2.65 10.6-4 16.07v22.1h-4v-12.03l-10.05-10.05-8 2c-1.32-3.32-2.65-6.63-4-10.05l-12-2-8-4h-12c-.67 3.31-1.33 6.63-2 10l8 8 6 14.06 12.06 2 2-2c1.32 3.32 2.65 6.63 4 10.05l10 4 12.06-6v34.16c1.16 13.43 1.16 13.43 6 22.1 2 4 2 4 2 16.07-.66 2-1.32 4-2 6v-19.95l-4-4-8-2 6-2 2-8-4-6h-8c.66-3.32 1.33-6.63 2-10.05l-6-6h-10c-.67 2.66-1.33 5.31-2 8l4 8-4 8c.66 4.65 1.32 9.29 2 14.07l4 4c-.66 3.31-1.32 6.63-2 10l10 10.05h8c0 27.14-9.09 41.91-22.1 66.31v6l12.05-2c20.09 0 20.09 0 34.16 4h6c5-22.49 4.61-42.3 2-65.17-2.46-22.52-2.38-44.82-2-67.44l6-12.05 18.28-10.03h22.1c-7-8.19-7-8.19-14.06-10.05-15.23-.95-15.23-.95-32.15 8-2-6-2-6 2-34.16 1.32-2.65 2.65-5.3 4-8l2-8 10 10.05 12.06-2c1.32-4 2.65-8 4-12.06l4 8 10.05-2 6-6h6l-4-14.06-10.05-6-2-2h-11.95l-6 6-6-4-10.05 2-6 10 4-10 8-6 8-22.1 8-8 14.06-2 8 10.05c-1-6-1-6-2-12.06-5.43-6.33-5.43-6.33-12.06-8l6-12.05 6 14.06 8 6 10-4 4 8 14.06-2 2 4h12.06l6-6-2-10-12.06-4-10-10h-10l-8-8c-11.55 1.08-11.55 1.08-18.08 6 8-14.06 8-14.06 20.09-22.1l6-2c.66-2.65 1.33-5.3 2-8l4.18-3.74 5.49-4.92 5.44-4.88c3.76-3.42 7.41-7 11-10.57-9.13-.8-9.13-.8-27.91 11.74zm-74.34 52.24v4l-12.06 2 10.05 26.12h4c9-15.67 9-15.67 16.07-32.15zm-30.14 12v22.11h-12.03c.67 2 1.33 4 2 6l16.08 6 4-6c-2.27-18.91-2.27-18.91-10.02-28.04zm68.31 10.05-10 8c-1.33 3.31-2.66 6.63-4 10h20.09l6-6-4-10.05zm18.09 0c.66 2 1.32 4 2 6l6-2v-4zm0 8-8 12v10.05l6 6 8 2-2 6c5.42 8.49 5.42 8.49 14.06 12.06l6 6h10l2-2v-10l-6-2 2-12-6-8h-4v-11.97l-8-8zm42.19 68.31-2 6-14.06-2-10.05 6v4l-14.06 4c-4.92 8.33-4.92 8.33-4 20.09l10 6h12.06c2.65-2.66 5.3-5.31 8-8-1.33-3.32-2.66-6.63-4-10.05l6 4 8-2 4-8-2-4 6 2 6-8-2-10.05zm-74.3 36.28-12.06 6c-.66 4.64-1.32 9.28-2 14.06 1.33 3.32 2.66 6.63 4 10l10.05 4 6-2v8c4.23 4.66 4.23 4.66 12.05 8 3.36 2 6.72 4 10.05 6l10-4 2-8-6-6-6-14.07-4-4h-6l-8-16.07zm16.07 2 4 12.05 12.06 8c.66 4 1.32 8 2 12.06l6 2v-26.06c-13.13-6.2-13.13-6.2-24.07-8.04zm-90.42 150.7-6 6 6 6c19.78 5.36 19.78 5.36 38.17 0l6-6-10.05-6z"/></g></svg>