<svg id="Layer_1" data-name="Layer 1" xmlns="http://www.w3.org/2000/svg" viewBox="0 0 1023.89 498.79"><defs><style>.cls-1{fill:#e5e9f0;}.cls-2{fill:#1789c1;}.cls-3{font-size:84px;font-family:MyriadPro-Regular, Myriad Pro;}.cls-4{letter-spacing:-0.03em;}.cls-5{letter-spacing:-0.01em;}.cls-6{letter-spacing:-0.01em;}.cls-7{letter-spacing:0em;}</style></defs><rect class="cls-1" width="1023.89" height="498.79"/><path class="cls-2" d="M200.73,328.45l.7,2.81Z" transform="translate(-0.11 -0.24)"/><path class="cls-2" d="M186,326.34l.7,1.41-3.51.7Z" transform="translate(-0.11 -0.24)"/><path class="cls-2" d="M278.68,289.82h12.65A139.41,139.41,0,0,1,285,306.68a66.78,66.78,0,0,1-6.33-3.51Z" transform="translate(-0.11 -0.24)"/><path class="cls-2" d="M95.37,289.82h11.24c2.81,6.32,2.81,6.32,2.81,11.94l-2.11,1.41-11.94-.71Z" transform="translate(-0.11 -0.24)"/><path class="cls-2" d="M249.89,261.73h26V287h-7.72l1.4-4.91c.35-5.38.35-5.38-1.4-9.13-5.49-2-5.49-2-16.86-2.81l-2.1-1.41C249.19,263.83,249.19,263.83,249.89,261.73Z" transform="translate(-0.11 -0.24)"/><path class="cls-2" d="M73.6,261.73H93.27V287H80.63C77.19,279,73.6,270.58,73.6,261.73Z" transform="translate(-0.11 -0.24)"/><path class="cls-2" d="M202.83,235l1.41.7v2.11l3.51,2.81v4.21c-6.32-2.11-6.32-2.11-7-2.81v-3.51Zm1.41,4.92-.71,2.1,2.81.7-1.4-2.8Z" transform="translate(-0.11 -0.24)"/><path class="cls-2" d="M235.84,229.42h9.83v8.43c-5.61,0-5.61,0-10.53-2.11C235.14,230.83,235.14,230.83,235.84,229.42Z" transform="translate(-0.11 -0.24)"/><path class="cls-2" d="M282.2,215.37l.7,2.81Z" transform="translate(-0.11 -0.24)"/><path class="cls-2" d="M89.76,214.67l1.4,2.11-.7,2.81Z" transform="translate(-0.11 -0.24)"/><path class="cls-2" d="M282.9,212.56l.7,2.81Z" transform="translate(-0.11 -0.24)"/><path class="cls-2" d="M89.05,211.16h.71v3.51h-.71Z" transform="translate(-0.11 -0.24)"/><path class="cls-2" d="M251.29,209.76v0Z" transform="translate(-0.11 -0.24)"/><path class="cls-2" d="M283.6,209.05l.7,2.81Z" transform="translate(-0.11 -0.24)"/><path class="cls-2" d="M257.61,203.43l1.41.71-2.11,2.1-1.4-.7Z" transform="translate(-0.11 -0.24)"/><path class="cls-2" d="M112.93,202.73l2.81,1.41h-2.1Z" transform="translate(-0.11 -0.24)"/><path class="cls-2" d="M86.24,190.09l2.11.7H86.24Z" transform="translate(-0.11 -0.24)"/><path class="cls-2" d="M259,174.64l2.81.7Z" transform="translate(-0.11 -0.24)"/><path class="cls-2" d="M255.51,173.94H259v.7h-3.51Z" transform="translate(-0.11 -0.24)"/><path class="cls-2" d="M113.64,173.94h3.51v.7h-3.51Z" transform="translate(-0.11 -0.24)"/><path class="cls-2" d="M92.57,173.94l1.4.7-.7,1.4Z" transform="translate(-0.11 -0.24)"/><path class="cls-2" d="M251.29,173.23h4.22v.71h-4.22Z" transform="translate(-0.11 -0.24)"/><path class="cls-2" d="M117.15,173.23h4.91v.71h-4.91Z" transform="translate(-0.11 -0.24)"/><path class="cls-2" d="M89.76,170.42l1.4.71-.7,1.4Z" transform="translate(-0.11 -0.24)"/><path class="cls-2" d="M283.6,169v0Z" transform="translate(-0.11 -0.24)"/><path class="cls-2" d="M87.65,167.62l1.4.7-.7,1.4Z" transform="translate(-0.11 -0.24)"/><path class="cls-2" d="M155.78,164.1h8.42l1.41,2.11v4.21l-2.11,2.11h-8.43v-7.72Z" transform="translate(-0.11 -0.24)"/><path class="cls-2" d="M228.12,138.82h4.21v.7h-4.21Z" transform="translate(-0.11 -0.24)"/><path class="cls-2" d="M289.92,128.28l.7,2.81-1.4,1.41Z" transform="translate(-0.11 -0.24)"/><path class="cls-2" d="M290.62,125.47l.71,2.81Z" transform="translate(-0.11 -0.24)"/><path class="cls-2" d="M268.15,125.47l2.11.71-.71,1.4Z" transform="translate(-0.11 -0.24)"/><path class="cls-2" d="M213.37,124.77H223.9v.7H213.37Z" transform="translate(-0.11 -0.24)"/><path class="cls-2" d="M149.45,124.77h9.84v.7h-9.84Z" transform="translate(-0.11 -0.24)"/><path class="cls-2" d="M249.89,124.07h.7v6.32h-.7Z" transform="translate(-0.11 -0.24)"/><path class="cls-2" d="M105.21,124.07l1.4.7h-2.1Z" transform="translate(-0.11 -0.24)"/><path class="cls-2" d="M81.33,124.07l1.4,2.81-.7,2.81Z" transform="translate(-0.11 -0.24)"/><path class="cls-2" d="M265.34,123.37l2.11.7h-2.11Z" transform="translate(-0.11 -0.24)"/><path class="cls-2" d="M291.33,122h.7v3.51h-.7Z" transform="translate(-0.11 -0.24)"/><path class="cls-2" d="M80.63,121.26l.7,2.81Z" transform="translate(-0.11 -0.24)"/><path class="cls-2" d="M250.59,118.45h.7v5.62h-.7Z" transform="translate(-0.11 -0.24)"/><path class="cls-2" d="M122.06,115.64h.71l.7,16.86C122.06,129.69,122.06,129.69,122.06,115.64Z" transform="translate(-0.11 -0.24)"/><path class="cls-2" d="M219.69,104.4l26,.71.71,11.94,1.4-4.92,3.51-1.4,2.81,1.4.7,1.41,4.92,1.4v1.4h4.22l2.8,2.81,4.92,1.41,2.11,2.81v4.91L278,133.2c1.16,2.78,2.32,5.56,3.51,8.43,3.33-3,3.33-3,4.22-4.92l-2.81-1.4-1.41-4.92-2.81-.7V107.21c8.7,0,8.7,0,12.63.31l2.52.19,2.54.21,2.64.2c6.32.49,6.32.49,9.17,1.2.84,6.74.7,13.58.7,20.37a103.31,103.31,0,0,1-12.64.7l-.7,4.22c4.7.94,4.7.94,8.43,0l2.81,1.4.7,4.92-1.4,2.1-3.52.71-3.51,3.51-2.81.7,2.11,2.11.7,2.1,3.51,2.11.71,4.21,2.81,1.41.7.7v3.51h2.81c.07,10.57,0,21.06-.71,31.61l-.7.7-21.07.7-2.81,2.11h-4.21v4.21l2.11-2.1,3.51-.71,2.1.71c1.18,2.35.71,5.12.71,7.72l.7,4.22-2.11,4.91v4.22l-2.81,2.81-4.21.7.7,3.51h24.58c-3,20.07-3,20.07-4.91,28.8l-.71.7c-21.07,0-21.07,0-27.39-2.11l-2.81-2.11C267,249,266,245.3,266,239.3l0-2.74c.08-3.09.43-6.17.77-9.25h-19l-.7-10.53-1.41-1.41v-4.91l2.11-.7v-9.14l-1.4.71h-4.92l-2.81-2.81v-2.11H222.5a79.5,79.5,0,0,1,3.6-9l1.14-2.45.88-1.85c.31-4.11.31-4.11-1.41-7L219,173.23v-8.42c6.49-3.25,14.51-.71,21.77-.71l1.4-3.51,2.11-1.4h2.81l.7-1.41-3.51.7-.7.71H238l-4.92.7-3.51-3.51.7-3.51,1.41-1.41,2.81.7-2.81,2.11.7,2.81.7.7h4.22l.7-2.1,1.4,1.4h3.52l.7-3.51,2.81,2.11,4.21-1.41,1.41-4.92h1.4l2.11,3.52v1.4L252,155.68l-.71,2.1,2.11-1.4,4.92.7c4.21,5.62,4.21,5.62,5.62,11.94l3.51,1.4.7,4.92-1.41.7-1.4-4.91-3.51-.71L259,171.83l-.7-2.11H253.4l-2.11,2.11h-2.1l-.71,4.21,1.41.71.7-2.11h.7l1.41,4.21,3.51.7.7-3.51h.7l1.41,4.22.7.7,4.92-.7,1.4-2.81h1.41V181l2.1,4.92.71,9.13-2.11.7-4.92-2.11h-5.62l-3.51,2.11h6.32l7.73,4.21A32.34,32.34,0,0,1,270,216a272.67,272.67,0,0,0-1.1,31.7l1.41,2.81,5.61-2.11c7,0,7,0,11.24.71l-1.89-3.34c-4-7.37-5.83-12.56-5.83-21.25l5.62-1.4v-6.32h1.4c.47-5.9.47-5.9-1.4-9.13h1.4v-4.22H282.9L281.49,207l.71,1.4-3.52.7-.7,4.22,3.51.7a8.9,8.9,0,0,1-4.21.7l-.7,6.32-.71,1.41-1.4-2.81.7-4.22,1.41-1.4v-4.92l.7-.7c.23-4.17.46-8.34.7-12.64l6.32.7,1.41-.7,1.4-3.51.7,1.4,4.92-2.11.7-4.91,2.81.7v-4.92c-4.11-.31-4.11-.31-7,1.41l-3.51.7-.7,2.81-.71,1.41-2.81-1.41-2.1.7c-1.67,2.81-1.67,2.81-1.41,6.32l-2.11-.7c-.34-6.26-.34-6.26-.7-12.64h5.62l2.11-2.11.7-3.51,3.51-1.4.7-.71v-5.61l2.81-2.81-1.4-2.81-3.51-.71,1.4-1.4-2.81-3.51v-4.92l-3.51,1.41c-3.64,4.86-4.52,11-5.62,16.85h2.11l.7-3.51,1.41-2.11h4.21l.7,1.41-4.91,1.4.7,4.22-4.92.7-1.4,2.11v4.91l-1.41-.7v-5.62l1.41-2.11c.46-3.47.92-6.95,1.4-10.53l2.81-7,3.51-2.81h4.92c.7,2.1.7,2.1,1.4,7,2.92.94,2.92.94,6.33,0l-.71,3.51,1.41,1.41,4.91.7,2.11,2.11,2.81-.71.7-2.81-1.4-1.4h-2.81v-4.21l-2.81-1.41-2.11.7v-4.21l-2.1-1.41-1.41.71c-4.92,0-4.92,0-9.13-1.41L285,148l-.71-2.81,4.22,2.81h4.21l1.41-2.11,4.91-.7,2.81-3.51h2.81l.7-4.22-4.91-.7-.71,2.11-2.1-1.41h-3.51l-.71,4.22-2.1-2.81h-4.22l-1.4,1.4-.7,3.52H282.2l-1.41,2.1-.7-2.1-2.11,2.1-2.11-4.91h-6.32v-1.41h-6.32l-2.1,1.41-.71-1.41-3.51.7.7,3.52,3.52,1.4,2.1,2.81h4.22l1.4-2.11,1.41,4.22,3.51.7,4.21-3.51c-.7,2.81-.7,2.81-3.51,7-3.53,9.85-3.53,9.85-4.92,17.56-1.4-2.81-1.4-2.81-2.81-9.13A107.4,107.4,0,0,0,247.08,136v-1.4l-2.81-1.41q-1.85-1.08-3.69-2.19l-1.9-1.15-1.43-.87h-2.11l9.13,7.72-1.4.7v1.41l3.51.7c4.91,4.22,4.91,4.22,6.32,7.73l-6.32-1.41-4.22,3.51V148l-4.91,2.11-2.11,2.81.7-3.52c3.51-2.8,3.51-2.8,7.73-4.21l2.81-2.11c-2.72-2.35-2.72-2.35-6.32-2.81l-.71,3.52-2.81,2.1h-6.32L226,147.25c-7.73-2.11-7.73-2.11-9.13-2.81V162h-7.73l4.22-9.13.7-4.92L212,143.74c-5.33-3-5.33-3-16.85-3.52l-2.11-2.1c0-4.22,0-4.22.7-5.62l19.67-.7-5.62-2.11-2.11-3.51,1.41-4.22,5.61-.7,3.52-2.11h2.1l.71-14Zm29.5,7.73-1.41,2.11v3.51L245,120.56l.7,3.51.71.7-2.11,1.41v4.21l3.51,3.51,2.81.71,3.51-2.11.7-3.51-2.1-3.52,2.1-.7.71-2.81-2.11-3.51.7-.7v-3.51l-2.1-2.11Zm6.32,2.81-.71,4.21,2.11,2.81,1.41,4.22,2.81.7.7-.7,2.11,3.51.7.7h5.62l.7-2.11h1.4v-4.91l-2.1-2.11h-4.92l-.7-2.81-2.11-1.4H259v-1.41Zm35.11.7-1.4,2.11v2.11l-3.51,2.1-.7,2.81,2.1,1.41-3.51,3.51.7,4.21,2.11,2.11,5.62.7,2.11-2.81-.71-4.91.71-.71,1.4-2.1-.7-6.32.7-2.81-1.4-1.41Zm-68.12,4.92-2.81,2.11-1.41-1.41-4.21.7-1.41,1.41-2.8-.7-2.11,1.4v3.51l1.4,1.41H212l.7-1.41,1.41,2.81,2.81.7,2.11-.7.7-2.11,2.81,2.81,4.91-.7,2.11-3.51-.7-1.41-.7-3.51-1.41-1.4Zm33,4.91.7,7h16.15v-2.11l-2.81.7h-4.91l-3.51-3.51Zm-26,4.22L226,131.8c-4.21,0-4.21,0-7-.71l-2.11,1.41v5.62h4.21l2.81-3.51h5.62l5.62-2.81L233,129.69Zm44.25,1.4c.5,4.7.5,4.7,4.21,9.84l.7-1.41C276.49,133.56,276.49,133.56,273.77,131.09ZM233,133.9l-3.51,3.51-1.4-2.1H224.6l-2.1,2.1v1.41h-4.22l-.7,2.81,2.11,2.11h4.21l1.41,1.4,4.91-.7.71-1.41,1.4,1.41,4.92-.7,2.1-2.81-1.4-5.62-2.11-1.41Zm7,2.11v1.4l1.4-.7Zm38.62,4.92.71,1.4Zm11.24,19,1.41,1.4v-1.4Zm-45.65.7-2.81,3.51.7,3.52-2.81.7-.7.7-.7,5.62-1.41,1.4.71,2.81.7.7h3.51l1.41-2.8,4.21-1.41.7-3.51-.7-1.41h3.51l1.41-2.1V164.1l-2.81-3.51ZM252.7,162l1.4,6.32,4.92.7,2.11.7,1.4-.7c-.91-3.82-.91-3.82-2.81-7Zm39.33.7.7,1.4,1.41-.7Zm-45.65,14.05-.71.7V188l4.22,1.41,1.4,4.91h2.11l3.51-2.1c5.62,0,5.62,0,11.24,2.1.23-5.35.23-5.35-2.11-11.94l-5.62.71-1.66-1c-1.07-.64-2.15-1.25-3.25-1.8H252l-2.11-2.11Zm30.9,6.32v4.21l1.4-.7-.7-3.51Zm-44.95,1.4-1.4,2.81,2.1,3.51h1.41l1.4,3.51a22.42,22.42,0,0,0,4.22.71l.7,4.21c1.77,1,1.77,1,5.62.7l3.51-2.1.7-2.81-2.11-4.22c-2.6-1.56-2.6-1.56-4.91-1.4l-.7-2.11-2.81-1.4-4.22.7v-1.41ZM259,197.11l-3.51,2.81-.71,4.22-2.1-.71-2.81,2.11v4.22l-2.81,1.4v3.51l3.51,1.41L254.1,214v-.7l4.22-1.41.7-3.51,2.81.7,2.81-2.1.7-6.33C263.18,198.15,263.18,198.15,259,197.11Zm15.45,53.38L271,252.6l2.11,2.1c7.4,1.9,7.4,1.9,13.34,0l2.11-1.4v-2.11C284.07,249.71,279.16,250.49,274.47,250.49Z" transform="translate(-0.11 -0.24)"/><path class="cls-2" d="M183.17,104.4h4.21l2.11,2.11v4.92l6.32,1.4c.69,1.16,1.39,2.32,2.11,3.51-1.41,5.62-1.41,5.62-6.33,14.75-.9,3.13-.9,3.13-.7,7.73l2.11,2.81,1.75.26c4.83.72,9.62,1.55,14.4,2.55L212,148c-1.4,6.32-1.4,6.32-6.32,15.45-.9,3.12-.9,3.12-.7,7.73,2.4,2.7,2.4,2.7,4.21,3.51l11.94,1.4c3.51,2.11,3.51,2.11,4.22,2.81,0,5.62,0,5.62-5.62,16.86-.23,2.08-.47,4.17-.7,6.32l2.1,3.51c5.54,1.76,5.54,1.76,14,2.11,3.51,2.11,3.51,2.11,4.92,4.21-.71,4.92-.71,4.92-1.91,7.46-.52,1.09-1,2.17-1.56,3.3s-1,2.16-1.56,3.28c-1.84,4-2,5.14-2,9.84l3.51,3.51,14.75,2.11,2.11,2.11c0,6.32,0,6.32-6.32,19.66v6.32l2.11,2.11,1.77.26c12.82,1.91,12.82,1.91,16.49,4.66,0,5.62,0,5.62-1.21,8.15-.51,1.09-1,2.18-1.56,3.3s-1,2.17-1.55,3.29c-2.12,4.6-2,5.53-2,11.24l.7,2.11c4.75,1.07,4.75,1.07,14.75.7l4.91,2.11c.71,1.4.71,1.4.71,5.62-7,14.76-15.51,28.63-26.69,40.62-1.3,1.41-2.54,2.86-3.78,4.33-14.43,15.92-34.34,28-54.52,35.11-8.73,2.86-8.73,2.86-14.75,2.11-21.08-6.84-39.55-16.75-55.79-32.06a30.22,30.22,0,0,0-4.61-3.76V358h-1.4A199.38,199.38,0,0,1,90.46,313v-4.22L93.27,306c4.55-1.13,9.36-.7,14-.7l3.52-.7c1-2.74,1-2.74.7-8.43-3.12-8-3.12-8-6.32-13.34v-6.32l2.1-2.11a108,108,0,0,1,14.75-2.11l3.52-2.81c.45-7.83.45-7.83-6.33-19.66l-.7-4.22,2.11-3.51c3.51-1.4,3.51-1.4,15.45-2.81l3.51-3.51c0-7.5-3.62-13.76-7-20.37l.7-4.91c2.11-2.11,2.11-2.11,4.21-2.81l12.65-1.41,2.81-2.1c1.18-5.5,1.18-5.5-2.11-12.65l-3.51-6.32v-6.32l2.1-2.1c6.33-1.41,6.33-1.41,14.05-2.11l3.51-2.11c1.07-1.87,1.07-1.87.71-6.32-2.65-7-2.65-7-6.33-13.34-.23-1.39-.46-2.79-.7-4.22l2.11-3.51c2.81-1.4,2.81-1.4,14.75-2.81l3.51-2.11c1.07-1.87,1.07-1.87.7-6.32-2.64-7-2.64-7-6.32-13.34l-.7-4.22,2.11-3.51,6.32-1.4Zm-16.86,75.86-5.62,2.1c-2.92,3.31-2.92,3.31-4.21,7v7l2.81,4.21c5.51,3.29,5.51,3.29,11.94,2.81l4.21-.7c14.05,0,14.05,0,23.18,1.41,6.93.41,6.93.41,12.64-2.11,3.44-3.8,3.44-3.8,4.92-7v-4.92c-2.46-4.19-2.46-4.19-5.62-6.32h-7.73l-2.1,2.11,6.32.7,2.81,2.81v4.21l-2.81,2.81-4.92.7c-4.21-2.1-4.21-2.1-9.83-7-2.74-1-2.74-1-8.43-.7-6,3.12-6,3.12-9.83,6.32-1.41.7-1.41.7-7,.7l-2.81-2.81-.7-3.51,1.41-2.81c3.51-1.4,3.51-1.4,9.13-.7l-.71-3.51C170.53,180.63,170.53,180.63,166.31,180.26Zm14.75,44.24a128,128,0,0,0,14.75,14.05l2.11-2.11v-3.51c-5.07-3-10.15-5.85-15.46-8.43Zm19,7-2.1,6.32-1.41,1.4-.7,2.81h-5.62l-.7,2.11,4.21,6.32c-.7,3.51-.7,3.51-4.21,7.73l-1.93,1.21c-9.93,6.29-9.93,6.29-17.74,14.94-1,2.74-1,2.74-.7,8.43l-1.4-7-4.22,3.52c-1,2.51-1,2.51-.7,7,2.55,7.55,2.55,7.55,9.13,14.05l2.31,1.87,3,2.47,1.52,1.23c5.71,4.64,9.14,7.87,13.5,14.09l1.4,7c2.64-2.34,2.64-2.34,4.22-7.72l1.4,3.51,4.21.7-2.8-4.91v-3.51l4.21,4.91h1.4c1.24,3.1,2.27,6.17,3.25,9.35l.95,3.07.72,2.33,4.21,3.51,2.11-.7-3.51-7-.54-1.67a110.06,110.06,0,0,0-4.38-11.68c4.22,6.32,4.22,6.32,6.32,14.05,2.81,2.44,2.81,2.44,7,2.81l.7-1.41-3.51-1.4a42.65,42.65,0,0,1-4.52-8.3l-1-2.29c-.55-1.37-1.07-2.76-1.54-4.16,1.9,3,3.8,6.06,5.62,9.13l4.22.7-2.81-3.51c-1.16-2.78-2.32-5.56-3.51-8.43-6.16-10.47-6.16-10.47-11.24-16.15l-.7,1.4.7,2.81-4.21-2.1c-4.92-9.84-4.92-9.84-4.92-16.16l1.4,2.81,2.11-2.11,2.11,4.92h2.1v-3.51l3.52,2.81h2.1a46.48,46.48,0,0,0,.71-6.32l3.51,3.51,2.81.7.7-.7v-5.62l3.51,3.51h2.81l-.7-7.72L226,280c.31-4.9.31-4.9-3.51-11.24l5.62,5.62h1.4l-.7-4.21-3.51-4.22c3.51,2.11,3.51,2.11,4.91,3.51l2.81-.7-.7-4.21L229.52,261l4.21.7v-2.81l-2.8-2.11h-1.41v-1.4l4.92,1.4V254l-2.11-1.4h-2.11v-1.41l5.62.71-1.4-2.81-2.11-1.41h-2.81l-.7,1.41-2.11-6.33-3.51-2.1,1.4,4.21c1.41,7,1.41,7,0,11.94l-2.1,2.11h-4.92L213.37,261c-1.79,4.63-3.37,9.32-4.92,14l-2.81,4.22-4.21.7-3.51-3.51-10.54-.71-.7-.7.7-4.91c4.21-4.92,4.21-4.92,5.81-5.92l2.09-1.33,2.08-1.31c1.63-1.06,3.21-2.21,4.77-3.38v-.71c3-.52,6.08-1,9.13-1.4.86-11.87.86-11.87-2.81-19l-4.21-4.92Zm-25.28,1.4c4.29,4.3,10.67,5.82,16.15,8.43l4.22.7V240c-6.52-5.84-6.52-5.84-17.56-7Zm-27.39,9.13-2.81,2.81-1.41,5.62-.7-1.4h-3.51l-2.81,2.81v1.4H141l-3.52,2.11v2.1h4.22L137.51,261l.71,2.1,2.81-.7h1.4l-2.81,3.51-.7,4.22,2.11.7,5.62-4.22-1.32,1.63a30.69,30.69,0,0,0-2.9,4v2.81h2.81l3.51-4.91c-.7,2.81-.7,2.81-2.81,7v3.51l2.81-1.4.7-1.41-.7,7,2.81.71,3.51-2.81v4.91l2.11.71,4.21-3.52,1.41-7,.7-1.4c-2.71-12.17-2.71-12.17-6.32-15.45l-8.43-1.41-2.1-3.51c0-8.43,0-8.43,2.1-12.64v-1.41Zm87.79,5.62,1.4,2.81,4.92-.7,2.81-3.51C241.19,246.28,238.17,247.13,235.14,247.68Zm-107.46,0,3.51,3.51,4.22.71,1.4-2.81-.7-.71Zm108.86,4.92.71,3.51,4.21.7v-1.4ZM134.71,254l-4.22,2.81v.7H134l1.41-1.4Zm101.13,3.51v4.22l.7.7h5.62C240.08,260.75,238,259.12,235.84,257.51Zm-100.43,1.41-5.62,4.21v.7c4.44.37,4.44.37,6.32-.7l.7-4.21Zm98.32,4.21,1.41,5.62,3.51,1.41,2.11-.71-1.54-1.18A66.64,66.64,0,0,1,233.73,263.13Zm-96.92,1.41a36.25,36.25,0,0,0-5.62,7,24.31,24.31,0,0,0,5.62-1.4l1.41-5.62Zm94.82,6.32v4.21c4.25,3.07,4.25,3.07,9.83,4.92h7l-2.81-1.41-4-2.19-2.1-1.15c-1.59-.87-1.59-.87-5.1-4.38Zm-93.41.7-5.62,4.92-7,3.51-2.11,1.4c6.11.32,6.11.32,13.34-2.81l3.51-2.1v-4.22Zm89.9,4.21v3.52c6.95,5.24,6.95,5.24,15.45,8.42h5.62c-2.43-1.61-4.94-2.93-7.51-4.3l-2.91-1.54-2.23-1.18-5.61-4.92ZM141,277.18l-7,5.62-9.83,4.91-2.11,1.41c6.28.36,6.28.36,14.05-3.51l7.73-4.92v-3.51Zm84.28,4.21-.71,4.22c6.24,6,6.24,6,14.75,9.83h3.52l-1.53-1.22a102.39,102.39,0,0,1-13.93-12.83Zm-80.77,1.41-4.92,5.62-10.53,8.42c5.64-.51,5.64-.51,12.64-4.91l5.62-4.92V283.5ZM219,284.9l-1.41,4.92c6.4,7.58,6.4,7.58,14.75,12.64-1.46-2.92-3.05-5.75-4.65-8.6l-1.74-3.08-1.34-2.36-.7-2.11Zm-66.73,1.41-4.21,1.4-4.92,9.84-4.21,6.32c5.48-1.51,5.48-1.51,12.64-9.13l2.81-3.51C153.83,288.41,153.83,288.41,152.26,286.31Zm59,.7-2.11,3.51c2.61,6.51,6.71,11,11.94,15.45l1.41-.7L218.28,299a34.87,34.87,0,0,1-2.1-9.13Zm-12.64,1.41-.7,2.81,2.81,6.32c1-2.52,1-2.52.7-7l-1.41-2.1Zm-38.63,0-4.21,2.81-1.41,7c-3.51,7-3.51,7-4.92,9.13,5.89-2.94,8.1-6.46,11.94-11.94l1.41-3.51Zm44.95.7-1.41,1.4c.62,4.26.62,4.26,4.92,9.84l.7-1.41-1.4-8.43Zm-40.74,5.62-1.4,7,3.51-3.51-.7-2.81Zm39.33,2.1.71,1.41Zm-2.1.71.7,1.4Zm-19.67,13.34,1.41,4.22-.71,7c3.32-1.8,3.32-1.8,4.92-3.51l2.11,3.51,2.1,1.4C191,319,191,319,185.27,313ZM167,330.56c-12.64,4.21-12.64,4.21-21.07,4.21l-1.69-1L142,332.44l-2.22-1.3c-2.12-1.21-4.27-2.32-6.47-3.39l-2.81.7.7,2.81,6.32,2.11-2.8-.71-3.52-.7-.7,4.92h8.43l4.21,2.1-7-1.4v2.81l2.11,3.51,2.1.7,2.81-.7h10.54l1.4-.7-.7,2.11,2.11,2.1,3.51.7,2.81,3.52,2.11.7,2.1-2.81v-1.41l-8.42-4.21c-2.11-5.62-2.11-5.62-2.11-7a133.82,133.82,0,0,1,22.47-7v-1.4l4.22,2.11c3.83-1.27,3.83-1.27,7-4.92l-1.4-2.81-.71-1.4C181.51,321.43,172.67,327.68,167,330.56Zm30.91-7.73c-2.23,3.91-2.23,3.91-2.6,7.36-4.11,25.71-4.11,25.71-8.64,34.78-3.51,2.81-3.51,2.81-4.92,3.51H165.61l-.7,1.41,1.4,2.1h2.81l-1.4.71.7,4.91,7-3.51h1.41L174,376.21l4.21,3.51c4-1.48,4-1.48,9.13-4.92l4.92-2.1,2.1,1.4h7l4.21,1.41,1.41-1.41,4.21.7-2.11-3.51c-3.79-1.89-8.41-1.14-12.64-1.4l-2.11-2.11c-2-7.85-.14-14.72,1.41-22.47,4.45-10.77,4.45-10.77,7.72-14.05-.52-3.67-.52-3.67-2.8-7Zm-70.24,6.32-1.4,1.41h3.51v-1.41Zm0,4.22-1.4,2.81,3.51-.71v-2.1Zm6.32,7-.7,3.51,2.81-1.4-.7-2.11Zm33,9.83-.7,2.11,2.11,2.11.7-3.52Zm-2.81,20.37-1.4,2.81,2.81-1.41Zm1.41,4.21-.7,2.81,2.1-.7V374.8Zm9.13,2.81-.7,3.51,2.1-1.4-.7-2.11Z" transform="translate(-0.11 -0.24)"/><path class="cls-2" d="M155.07,104.4h24.59v4.92L174,112.13l-1.41,3.51c1.13,7.24,1.13,7.24,4.92,14l-13.35.7-6.32,2.11-5.62-.7v5.61l3.52.71.7.7V143c-2.11,2.11-2.11,2.11-3.51,2.81L152.26,162H131.9c1,4.16,1,4.16,3.51,6.32l.7,4.91-.7,1.41h2.1l.71,3.51L136.11,181h-4.92l-2.1-2.11v-1.4l-4.22.7-.7,10.54,4.21-.71,1.41-2.81c1.4-.7,1.4-.7,7-.7l1.41-1.4,3.51.7,1.4,3.51a92.83,92.83,0,0,1-5.62,8.43l-2.8.7v1.41l16.15.7.7,2.81-2.11,2.81c-3.88,1-7.94,1.09-11.94,1.4l-5.61,2.81-1.41,2.81c.4,6.93.4,6.93,4.92,14.75v1.4h-9.13l-.7-10.53H120L118.55,214H115l-2.11-2.81L108,209.05l-2.11-4.21c-1.66,3.32-.76,8.3-.7,11.94.19,4.22.44,8.43.7,12.64h17.56l.7.7v7.73l-4.92,2.81h-1.4c-1.07,2.85-1.07,2.85-.7,9.13,1.14,3.06,2.3,6.1,3.51,9.13H95.37v-1.41l-3.51.71-6.32-1.41L82,253.3c1.21-6.06,4.85-11.39,7.73-16.86l2.81-9.13H67.28c-.93-5.14-1.71-10-2.19-15.18l-.36-3.72c-.24-3.29-.26-6.59-.26-9.89H87L85.54,195l-4.91-.71-2.81-2.81v-2.8L75,187.28l-.71-.7v-4.92l1.41-1.4c4.21,0,4.21,0,7.73,1.4l4.91.7,2.11,2.81,4.21,1.41.7-3.51H91.16l-2.81-2.81v-3.51L85.54,176l-2.1-2.1L82.73,169l-2.1-2.11-.71-3.51-2.89,1-7.64,2.54-2.81-1.4-.7-3.51H63.07V133.2l.7-.7H77.11l-.7-4.92a20.64,20.64,0,0,1,0-8.43v-3.51l2.81-2.1,4.22,1.4,1.4,2.11v2.81l2.81.7,2.11,6.32,1.4,2.81v2.81h2.11l.7,2.11,2.81-4.92H95.37V107.21c9.49-1.58,19.2-1.52,28.8-1.4l.7,6.32,1.41,2.11-.7,2.1-2.11-3.51-3.51.71-1.41,4.21,1.41.7-1.41,2.11v4.91l2.11-.7-1.41,2.81v4.92l2.81,1.4,2.81-.7,3.51-3.51-.7-3.51-3.51-1.41v-.7h3.51l-1.4-4.92-2.11-2.1,3.51.7,1.41,2.11v4.91l2.1,4.22,5.62-2.81,5.62-.71.7-4.91,4.22-2.11c4.21.7,4.21.7,5.62,1.41l1.4-.71Zm-40,10.54-2.11,2.11-4.21.7-1.41,2.81L101.7,122l-1.41,2.11v3.51l2.81,2.81h5.62l2.11-2.81v-2.11l.7,1.41,3.51-.7c3.07-6.42,3.07-6.42,2.81-11.24Zm-36.52.7-.7.7v3.52a19.53,19.53,0,0,1-.71,5.61l1.41,2.81h1.4l-1.4,2.81c.45,3.43.45,3.43,2.11,5.62l4.21-.7H87l2.1-2.81V129l-3.51-2.81,2.11-.71L87,122l-3.51-2.1.7-1.41L82,115.64Zm67.42,4.92-2.1,2.81v4.91l3.51,2.81,4.21-.7.7-2.81h1.41l.7,2.81,2.81.7,3.51-3.51.7,1.41h2.81l1.41-4.22-2.11-2.1-3.51.7-2.81-2.11-3.51.7h-1.41l-1.4-1.4Zm-4.21,7-4.22,3.51,2.11,1.41h7l-4.22-4.92ZM108,131.09h-7.73c-.69,2.55-1.39,5.1-2.11,7.73l4.22.7,2.11-1.4c4.91,0,4.91,0,7.72.7h3.51l2.11,2.11c3.33-3,3.33-3,4.21-4.92l-4.21-2.11-2.11-4.21C111,129.32,111,129.32,108,131.09Zm-9.84,0c-3.52,6.28-3.52,6.28-4.21,10.54,3.55-3.16,3.55-3.16,5.62-10.54Zm38.63,2.81L134,137.41l.71,2.11-1.41.7,3.51,4.22,4.92-.7.7-1.41,1.41,2.81,4.91-.7.7-1.41,3.52.71,2.81-2.81-1.41-2.11-3.51-.7-2.81-2.81h-3.51l-.7,3.51L142.43,136l-2.11-2.11Zm-7-2.1a107.1,107.1,0,0,0-25.28,32.3l-.71,5.62L101,159.19l-1.71-3.78-1-2.12c-.5-1.09-1-2.17-1.54-3.23l4.21,1.4,3.52-3.51.7.7h4.21l2.11-2.81,3.51-1.4,1.4-1.41-.7-3.51a16.37,16.37,0,0,0-6.32-.7h-4.91l-1.41.7v1.41l-1.4-.71H97.48l-2.11,2.11-.7,2.81-.7-3.51-1.4.7v3.51H91.16l-.7-2.81H88.35L87,138.82c-1.77-1-1.77-1-5.62-.7l-1.41,1.4-1.4-2.81H75l-2.11,2.11-.7-2.11H68.69l-1.41,1.41.7,3.51L71.5,143l2.8,2.81h3.52l2.81,2.81h4.21l2.81-2.81.7,2.11c-3.74,1.87-7.1,1.4-11.24,1.4l-1.4,2.11.7,3.51H75v-1.4L71.5,155l-.71,2.81.71,1.41-3.52.7-.7.7v3.51l3.51,1.41,2.11-1.41.7-1.4h4.22l2.1-2.11-.7-2.81a30.53,30.53,0,0,1,4.92.7l2.1-2.1a11.67,11.67,0,0,0,.71-5.62h4.21l3.51,2.81c2.81,7.72,2.81,7.72,3.51,16.85l2.11,3.52v2.81l-1.4-4.92-2.11-1.41H94v-3.51l-1.4-1.4-3.52-.7L87.65,162l-.7-.71H83.44L82,162.7v3.51l2.81,1.41-.7,4.91,2.1,2.81h2.81l.71,4.21,2.1,2.11,6.32-.7-1.4,5.62v7.72H95.37v-4.21l-3.51-3.51-2.81.7-1.4-3.51-4.21-.7-2.81-1.41H76.41l-.7,3.51L78.52,188l2.11,4.92,4.21.7.7-.7L87,196.41l3.51,1.41,4.21-2.11v11.94c.41,4.69.41,4.69,2.11,7.72.7,1.41.7,1.41.7,5.62l-.7,2.11v-7l-1.41-1.41-2.8-.7,2.1-.7.7-2.81L94,208.35H91.16l.7-3.51-2.1-2.11H86.24l-.7,2.81L87,208.35l-1.41,2.81.7,4.92,1.41,1.4L87,221l3.51,3.51h2.81c0,9.49-3.18,14.65-7.73,23.18v2.11l4.22-.7c7,0,7,0,11.94,1.4h2.1c1.75-7.86,1.62-14.79.71-22.78a187.32,187.32,0,0,1-.71-23.57l2.11-4.22,6.32-3.51H120c-2.45-2.86-2.45-2.86-4.92-3.51-5.32-.33-5.32-.33-11.24,2.81-.7-2.11-.7-2.11.71-11.94l1.4-2.81.7-2.81,3.51,3.51,4.22-.7,1.4-4.21,1.41,2.8,3.51-.7,2.11-2.1h2.1l-1.4-4.92L120,169.72l-.71-.7H115l-2.11,2.11-2.1-1.41-3.52.7-2.1,3.52,1.4-3.52,2.81-2.1,2.81-7.73,2.81-2.81,4.92-.7,2.81,3.51-.71-4.21c-1.89-2.21-1.89-2.21-4.21-2.81l2.11-4.22,2.1,4.92,2.81,2.11,3.51-1.41,1.41,2.81,4.92-.7.7,1.4h4.21l2.11-2.1-.7-3.51-4.22-1.41L133.3,148h-3.51L127,145.14c-4,.38-4,.38-6.32,2.11,2.81-4.92,2.81-4.92,7-7.73l2.11-.7.7-2.81L132,134.7l1.92-1.72,1.9-1.7c1.32-1.2,2.59-2.44,3.85-3.7C136.36,127.41,136.36,127.41,129.79,131.8Zm-26,18.26v1.4l-4.21.7,3.51,9.13h1.41a72.19,72.19,0,0,0,5.61-11.23Zm-10.53,4.21V162H89.05l.71,2.1,5.61,2.11,1.41-2.11C96,157.46,96,157.46,93.27,154.27Zm23.88,3.51-3.51,2.81-1.41,3.51h7l2.11-2.1-1.4-3.52Zm6.32,0,.7,2.11,2.11-.7v-1.41Zm0,2.81-2.81,4.22v3.51l2.11,2.1,2.81.71-.71,2.1c1.9,3,1.9,3,4.92,4.22l2.11,2.1h3.51l.7-.7v-3.51l-2.11-.7.71-4.22-2.11-2.8h-1.41V163.4l-2.81-2.81Zm14.75,23.88-.71,2.11-4.91-.7-3.51,2.1v1.41l-4.92,1.4c-1.72,2.92-1.72,2.92-1.4,7l3.51,2.1h4.21l2.81-2.81-1.4-3.51L134,195l2.81-.71,1.41-2.81-.71-1.4,2.11.7,2.11-2.81-.7-3.51Zm-26,12.64L108,199.22l-.71,4.92,1.41,3.51,3.51,1.4,2.11-.7v2.81c1.48,1.63,1.48,1.63,4.21,2.81,1.18.69,2.35,1.39,3.51,2.11l3.52-1.41.7-2.81-2.11-2.1-2.11-4.92-1.4-1.41h-2.11l-2.81-5.61Zm5.62.71,1.4,4.21,4.22,2.81.7,4.21,2.11.71v-9.14C121.69,198.46,121.69,198.46,117.85,197.82ZM86.24,250.49l-2.1,2.11,2.1,2.1c6.92,1.88,6.92,1.88,13.35,0l2.11-2.1-3.52-2.11Z" transform="translate(-0.11 -0.24)"/><text class="cls-3" transform="translate(361.84 214.43)"><tspan class="cls-4">V</tspan><tspan x="44.1" y="0">e</tspan><tspan class="cls-5" x="86.18" y="0">r</tspan><tspan x="112.81" y="0">dis</tspan><tspan class="cls-6" x="0" y="100.8">C</tspan><tspan x="47.8" y="100.8">ommunic</tspan><tspan class="cls-7" x="384.21" y="100.8">a</tspan><tspan x="424.37" y="100.8">tions</tspan></text></svg>